<?xml version="1.0" encoding="UTF-8"?>
<!-- Generator: Adobe Illustrator 16.0.0, SVG Export Plug-In . SVG Version: 6.00 Build 0)  -->
<svg width="64" height="64" version="1.1" viewBox="0 0 511.634 511.63498" xml:space="preserve" xmlns="http://www.w3.org/2000/svg" xmlns:cc="http://creativecommons.org/ns#" xmlns:dc="http://purl.org/dc/elements/1.1/" xmlns:rdf="http://www.w3.org/1999/02/22-rdf-syntax-ns#"><metadata><rdf:RDF><cc:Work rdf:about=""><dc:format>image/svg+xml</dc:format><dc:type rdf:resource="http://purl.org/dc/dcmitype/StillImage"/><dc:title/></cc:Work></rdf:RDF></metadata>
<g transform="matrix(1.0769 0 0 1 -19.682 0)">
	<path d="m482.51 83.942c-7.225-7.233-15.797-10.85-25.694-10.85h-36.541v-27.41c0-12.56-4.477-23.315-13.422-32.261-8.95-8.946-19.699-13.421-32.265-13.421h-18.268c-12.565 0-23.318 4.475-32.264 13.422-8.949 8.945-13.422 19.701-13.422 32.261v27.41h-109.63v-27.41c0-12.56-4.475-23.315-13.422-32.261-8.945-8.947-19.699-13.422-32.264-13.422h-18.271c-12.562 0-23.317 4.475-32.264 13.422-8.945 8.945-13.421 19.701-13.421 32.261v27.41h-36.542c-9.9 0-18.464 3.617-25.697 10.85-7.233 7.232-10.85 15.8-10.85 25.697v365.45c0 9.89 3.617 18.456 10.85 25.693 7.232 7.231 15.796 10.849 25.697 10.849h401.99c9.897 0 18.47-3.617 25.694-10.849 7.234-7.234 10.852-15.804 10.852-25.693v-365.45c-1e-3 -9.9-3.615-18.464-10.845-25.697zm-135.33-38.256c0-2.667 0.849-4.858 2.56-6.567 1.711-1.711 3.901-2.568 6.57-2.568h18.268c2.67 0 4.853 0.854 6.57 2.568 1.712 1.712 2.567 3.903 2.567 6.567v82.224c0 2.666-0.855 4.853-2.567 6.567-1.718 1.709-3.9 2.568-6.57 2.568h-18.268c-2.669 0-4.859-0.855-6.57-2.568-1.711-1.715-2.56-3.901-2.56-6.567zm-219.27 0c0-2.667 0.855-4.858 2.568-6.567 1.714-1.711 3.901-2.568 6.567-2.568h18.271c2.667 0 4.858 0.854 6.567 2.568 1.711 1.712 2.57 3.903 2.57 6.567v82.224c0 2.666-0.855 4.856-2.57 6.567-1.713 1.709-3.9 2.568-6.567 2.568h-18.271c-2.666 0-4.856-0.855-6.567-2.568-1.709-1.715-2.568-3.901-2.568-6.567zm328.9 429.4h-401.99v-292.36h401.99z"/>
</g>
</svg>
