<?xml version="1.0" encoding="UTF-8"?>
<!-- Generator: Adobe Illustrator 21.1.0, SVG Export Plug-In . SVG Version: 6.00 Build 0)  -->
<svg width="64" height="46.093" version="1.1" viewBox="0 0 64 46.093266" xml:space="preserve" xmlns="http://www.w3.org/2000/svg" xmlns:cc="http://creativecommons.org/ns#" xmlns:dc="http://purl.org/dc/elements/1.1/" xmlns:rdf="http://www.w3.org/1999/02/22-rdf-syntax-ns#"><metadata><rdf:RDF><cc:Work rdf:about=""><dc:format>image/svg+xml</dc:format><dc:type rdf:resource="http://purl.org/dc/dcmitype/StillImage"/><dc:title/></cc:Work></rdf:RDF></metadata>
<style type="text/css">
	.st0{fill:#020000;}
	.st1{fill:#0F0E0F;}
	.st2{display:none;}
	.st3{display:inline;}
	.st4{fill:#040006;}
	.st5{fill:none;stroke:#F9F7F7;stroke-width:2;stroke-miterlimit:10;}
	.st6{fill:none;stroke:#FAFAFA;stroke-width:2;stroke-miterlimit:10;}
	.st7{fill:none;stroke:#FDFDFD;stroke-width:2;stroke-miterlimit:10;}
	.st8{fill:#FFFFFF;}
	.st9{display:inline;fill:#040006;}
	.st10{fill:#040006;stroke:#FAFAFA;stroke-width:2;stroke-miterlimit:10;}
	.st11{fill:none;stroke:#040006;stroke-width:2;stroke-miterlimit:10;}
	.st12{fill:none;stroke:#FFFFFF;stroke-width:0.75;stroke-miterlimit:10;}
	.st13{fill:#040006;stroke:#FDFDFD;stroke-miterlimit:10;}
	.st14{fill:#FFFFFF;stroke:#FDFDFD;stroke-width:2;stroke-miterlimit:10;}
	.st15{fill:#040006;stroke:#FCFAFB;stroke-width:1.5;stroke-miterlimit:10;}
	.st16{fill:#040006;stroke:#FFFFFF;stroke-width:2;stroke-miterlimit:10;}
	.st17{fill:none;stroke:#FFFFFF;stroke-miterlimit:10;}
	.st18{fill:none;stroke:#FFFFFF;stroke-width:2;stroke-miterlimit:10;}
</style>
<g class="st2" transform="translate(-34 -273.61)" display="none">
	<g class="st3" display="inline">
		<path class="st4" d="m112.3 290.7v-7.2h14.6v-14.5h3.8l7.4 8.8 6-0.2v-3.1l8.8-5.5h2.6v3.1l3.1 5.5 14.3 0.2-1 13.8h17.9v3.6s10.5 1.4 15.5 2.1 13.6 5.5 11.5 10.7c-2.1 5.3-18.4 8.8-24.8 10s-59.4 2.9-59.4 2.9-44.6-2.1-52.3-7.9c-7-5.3-16.2-7.6 4.1-16.9 15.5-7.1 27.9-5.4 27.9-5.4z" fill="#040006"/>
			<path class="st4" d="m414.6 206.6c-4.8-1.2-69.2-4.5-69.2-4.5l-1.3-165.4c-1.2-4.9-2.4-9.7-6.9-12.7-7.1-4.8-17.1-5.1-25.3-7.4l-73.4-14.9c-6.8-0.2-13.8-0.1-20 3.2-1.1 0.6-2.1 1.2-3.1 1.8-1.5 1.4-3 2.8-4.6 4l-115.3 130c-0.3 0.5-0.7 0.9-1 1.4-1.2 1.5-2.6 2.9-3.9 4.4-0.8 1.2-1.7 2.3-2.5 3.4-0.9 1.4-1.8 2.8-2.7 4.2-0.2 0.4-0.5 0.8-0.7 1.2l-0.1 0.1c-0.3 0.5-0.6 1-0.8 1.5-1.3 2.9-2.5 5.8-3.5 8.8-0.1 0.4-0.1 0.8-0.2 1.2s-0.1 0.8-0.2 1.3c-0.1 0.8-0.1 1.7-0.2 2.5v58.4c0.2 2 0.4 4 0.6 6.1 0.2 1.1 0.5 2.2 0.7 3.3 0.1 0.4 0.2 0.8 0.3 1.1 0.2 0.6 0.5 1.2 0.7 1.8 0.4 0.5 0.8 1.1 1.3 1.7 1 1.1 2.1 2.1 3.2 2.9l6 0.9 157.7 4.9v-42h37.2v3.1h-33.9v51.7c1.6 6.3 5 8.7 12.2 9.5 0.5 0 1.2 0.1 2.1 0.2 1.1-0.2 2.2-0.4 3.4-0.5l16.2-5.8v-18 11.9h8.4v-16.7h44.6v9.5h8.1v-34.8h10v42h6.2v-41.5l7.2-0.5s-1.9-3.8 15.3-7c17.2-3.1 29.6 3.1 29.6 3.1v39.6h7.6v-37.5c0.4 0.7 1.4 0.7 4.3-2.1 5.5-5.7-9.3-8.1-14.1-9.4z" fill="#040006"/><g fill="none" stroke-miterlimit="10" stroke-width="2">
			<path class="st5" d="m221.8 3.5c0.9 80.2 0.9 166.7 0 247.4" stroke="#f9f7f7"/>
			<path class="st6" d="m345.4 202.1s-47.9-1.7-58.2 0.9v64.9" stroke="#fafafa"/>
			<line class="st7" x1="348.3" x2="286.8" y1="221.3" y2="221.4" stroke="#fdfdfd"/>
		</g>
		<g fill="#fff">
			<polygon class="st8" points="160.3 122 139.1 136.4 139.1 111.4 160.3 90.7"/>
			<polyline class="st8" points="166.9 178.5 214.2 162 214.2 207.7 166.9 210.8 166.9 179.2"/>
			<polygon class="st8" points="108.9 156.9 94.6 166.8 94.6 154.9 108.9 140.9"/>
			<polygon class="st8" points="109.1 187.1 94.6 193.1 94.6 180.8 108.9 171.6"/>
			<polygon class="st8" points="109 214.7 95 215.6 94.5 203.8 108.6 198.9"/>
			<polygon class="st8" points="134 139.9 114.4 153.3 114.4 135.5 134 116.4"/>
			<polyline class="st8" points="166.9 85.2 214.2 38.4 214.2 85.2 166.9 117.6 166.9 85.2"/>
			<polygon class="st8" points="134 176.7 114.4 184.8 114.4 168.1 134 155.5"/>
			<polygon class="st8" points="160.3 165.7 139.1 174.5 139.1 152.2 160.3 138.5"/>
			<polygon class="st8" points="214.2 143.2 166.9 162.9 166.9 134.3 214.2 106.7"/>
			<polygon class="st8" points="134 213 114.4 214.3 114.4 196.9 134 190"/>
			<polygon class="st8" points="160.3 211.3 139.1 212.7 139.1 188.2 160.3 180.8"/>
			<polygon class="st8" points="88.8 170.8 83.4 174.5 83.4 166.2 88.8 160.6"/>
			<polygon class="st8" points="88.8 195.5 83.4 197.8 83.4 188.1 88.8 184.6"/>
			<polygon class="st8" points="88.8 216 83.4 216.4 83.4 207.7 88.8 205.8"/>
			<polygon class="st8" points="246.9 61.1 240.9 60.4 240.9 34.4 246.9 35.2"/>
			<polygon class="st8" points="246.9 186.5 240.9 186.5 240.9 160.4 246.9 160.7"/>
			<polygon class="st8" points="332.7 71.7 326.7 71 326.7 46.5 332.7 47.4"/>
			<polygon class="st8" points="324.1 70.7 318.1 69.9 318.1 45.3 324.1 46.2"/>
			<polygon class="st8" points="314.2 69.6 308.2 69 308.2 44.1 314.2 44.9"/>
			<polygon class="st8" points="304.3 68.2 298.3 67.5 298.3 42.5 304.3 43.4"/>
			<polygon class="st8" points="267.2 63.6 261.2 62.8 261.2 37.1 267.2 38.1"/>
			<polygon class="st8" points="257.7 62.6 251.7 61.8 251.7 36 257.7 36.8"/>
			<polygon class="st8" points="277.3 64.8 271.2 64.1 271.2 38.4 277.2 39.4"/>
			<polygon class="st8" points="287.3 66.1 281.4 65.4 281.4 40.1 287.3 41"/>
			<polygon class="st8" points="295.7 67.2 289.7 66.4 289.7 41.3 295.7 42.1"/>
			<polygon class="st8" points="246.9 121.9 240.9 121.5 240.9 95 246.9 95.5"/>
			<polygon class="st8" points="257.7 122.6 251.7 122.2 251.7 95.9 257.7 96.3"/>
			<polygon class="st8" points="266.9 123.2 260.9 122.8 260.9 96.5 266.9 97"/>
			<polygon class="st8" points="276 123.9 270 123.5 270 97.3 276 97.7"/>
			<polygon class="st8" points="286.8 124.7 280.9 124.3 280.9 98.1 286.8 98.6"/>
			<polygon class="st8" points="295.7 125.1 289.7 124.7 289.7 98.8 295.7 99.3"/>
			<polygon class="st8" points="304.2 125.8 298.3 125.4 298.3 99.5 304.2 99.9"/>
			<polygon class="st8" points="314.2 126.5 308.2 126.1 308.2 100.3 314.2 100.8"/>
			<polygon class="st8" points="324 127.1 318 126.7 318 101 324 101.5"/>
			<polygon class="st8" points="332.9 127.7 326.9 127.3 326.9 101.7 332.8 102.2"/>
			<polygon class="st8" points="257.5 186.5 251.7 186.5 251.7 160.7 257.7 160.8"/>
			<polygon class="st8" points="267 186.2 260.9 186.2 261 160.7 267 161"/>
			<polygon class="st8" points="277.3 186.4 270.9 186.4 271 161.2 277 161.4"/>
			<polygon class="st8" points="287.2 186 281.4 186.3 281.2 161.1 287.2 161.5"/>
			<polygon class="st8" points="295.6 186.2 289.8 186.2 289.9 161.4 295.6 161.7"/>
			<polygon class="st8" points="305.5 186 299.7 186 299.9 161.6 305.5 161.7"/>
			<polygon class="st8" points="315.5 186.2 309.7 186.2 309.8 162 315.5 162.2"/>
			<polygon class="st8" points="324.1 186.2 318.3 186.2 318.4 162 324.1 162.4"/>
			<rect class="st8" x="326.9" y="162.5" width="6" height="23.9"/>
		</g>
	</g>
</g>
<g class="st2" transform="translate(-34 -273.61)" display="none">
	<path class="st9" d="m511.9 75.8c-0.5-2.7-1.1-5.3-2.5-7.2-0.2-0.3-0.4-0.5-0.5-0.7-0.3-0.2-0.7-0.5-1-0.7l-34.8-10.9c-0.2-0.1-0.4-0.1-0.6-0.2-0.3-0.1-0.7-0.2-1-0.3-0.6-0.1-1.2-0.2-1.9-0.4-1.1-0.1-2.2-0.3-3.2-0.4-1.8-0.2-3.6-0.2-5.5-0.2l-1.9 0.1c-0.8 0-1.7 0.1-2.5 0.1l-446.8 13.2c-0.8 0.3-1.6 0.5-2.3 0.9-4 1.8-5.7 3.7-7 6.9-0.1 0.8-0.2 1.6-0.3 2.3v135.1c0.1 0.7 0.2 1.5 0.2 2.2 1.3 4.5 3.5 8 7.3 8.5l1.2 0.1c0.9 0 1.8 0.1 2.6 0.3l129.8 13.7v-67.9h97.4l-0.3 78.5 219.8 22.8c0.6 0 1.2 0.1 1.8 0.1 4.4-0.3 8.7-1 13-2.3 0.1 0 0.2-0.1 0.2-0.1l1.8-0.9 33.5-24.6c0.6-0.8 1.2-1.5 1.7-2.4 1.2-2 1.5-4.2 1.8-6.7v-158.6c0.1-0.1 0.1-0.2 0-0.3z" display="inline" fill="#040006"/>
	<g class="st3" display="inline"><g fill="#fff">
		<polygon class="st8" points="238.7 157.3 143.1 156.4 143.1 111.9 238.7 111.9"/>
		<rect class="st8" x="251.9" y="180" width="32.2" height="39.7"/>
		<rect class="st8" x="300.1" y="180" width="41.6" height="46.3"/>
		<rect class="st8" x="251.9" y="77.9" width="32.2" height="39.7"/>
		<rect class="st8" x="251.9" y="126.1" width="32.2" height="44.5"/>
		<rect class="st8" x="300.1" y="126.1" width="41.6" height="44.5"/>
		<rect class="st8" x="300.1" y="75.5" width="41.6" height="44.5"/>
		<rect class="st8" x="354" y="73.1" width="41.6" height="44.5"/>
		<rect class="st8" x="354" y="126.1" width="41.6" height="44.5"/>
		<rect class="st8" x="354" y="180" width="41.6" height="46.3"/>
		<rect class="st8" x="408" y="182.8" width="45.4" height="47.3"/>
		<rect class="st8" x="408" y="71.7" width="45.4" height="47.3"/>
		<rect class="st8" x="408" y="126.1" width="45.4" height="47.3"/>
		<rect class="st8" x="6.9" y="80.7" width="17" height="34.4"/>
		<rect class="st8" x="6.9" y="128" width="17" height="29.3"/>
		<rect class="st8" x="6.9" y="165.3" width="17" height="29.3"/>
		<rect class="st8" x="36.3" y="80.7" width="24.3" height="36.9"/>
		<rect class="st8" x="36.3" y="126.1" width="21.8" height="35"/>
		<rect class="st8" x="35" y="166.3" width="24.3" height="36.9"/>
		<rect class="st8" x="70.9" y="80.7" width="24.3" height="36.9"/>
		<rect class="st8" x="70.9" y="128" width="24.3" height="33.1"/>
		<rect class="st8" x="70.9" y="166.8" width="24.3" height="36.9"/>
		<rect class="st8" x="108.1" y="80.7" width="24.3" height="36.9"/>
		<rect class="st8" x="108.1" y="124.2" width="24.3" height="36.9"/>
		<rect class="st8" x="108.1" y="170.5" width="24.3" height="36.9"/>
		</g><line class="st6" x1="469.6" x2="469" y1="55.4" y2="270.4" fill="none" stroke="#fafafa" stroke-miterlimit="10" stroke-width="2"/>
		<polygon class="st8" points="238.3 248.8 141.2 238.2 141.2 170.3 238.7 170.3" fill="#fff"/>
		<path class="st10" d="m215.6 277.7h9.5v-178.6s-99.7-3-89.6 71.4c0 0 9.5-28.4 34-37.2 0 0 15.1-7.3 22.1 9.3 0 0 16.4 6.1 23.3 0z" fill="#040006" stroke="#fafafa" stroke-miterlimit="10" stroke-width="2"/>
		<line class="st11" x1="141.2" x2="238.3" y1="238.2" y2="248.8" fill="none" stroke="#040006" stroke-miterlimit="10" stroke-width="2"/>
	</g>
</g>
<g class="st2" transform="translate(-34 -273.61)" display="none">
	<g class="st3" display="inline">
		<path class="st4" d="m512.8 35.1l-0.4-2.6c-0.1-1-0.3-2.1-0.6-3.2-0.5-0.8-1-1.7-1.6-2.4-1.8-1.7-3.9-2.8-6.2-3.6l-3.3-0.3c-9 0.8-17.6 4.5-25.9 7.9-0.5 0.2-1 0.4-1.4 0.5l-23.2 11.6s-35.8-26-77.8-39.7c-12.2-3-24.7-3.2-37.4-3.2-0.9 0.1-1.7 0.2-2.6 0.3-60.4 9.4-164.8 63.7-204.3 117.8-40.4 55.3-60.5 102.5-63 131.8 0 1-0.1 2.1-0.1 3.1 0 1.3-0.1 2.6-0.1 3.8v21.8c0 0.7 0.1 1.4 0.1 2.2 0.1 1.2 0 2.3-0.1 3.4v7.5c0.1 0.2 0.1 0.4 0.2 0.6v0.1 0.1c0 0.2 0.1 0.4 0.1 0.5 0.2 0.6 0.5 1.1 0.8 1.7l0.4 0.4 0.6 0.6c0.3 0.2 1 0.8 1.2 0.9s0.7 0.3 1.1 0.5h32.9c0.4-0.1 0.8-0.2 1.3-0.3l16.1-7.7c0.5-0.5 0.9-1.1 1.2-1.8-0.3-7-1.3-43.8 10.7-78 13.3-37.9 45.5-80.6 54.6-93.2 13-17.9 73.2-69.2 119.2-79.2-25.8 11.5-59.6 30.7-91.6 62.9-16.1 16.2-56.7 58-74.1 125.5-6 23.4-7.7 43.6-8 57.8 0.1 0.5 0.2 1.1 0.3 1.7 0.5 0.5 1 0.8 1.6 1h0.9l14.2-3.8c0.2-0.1 0.3-0.3 0.5-0.5-0.4-21.7 1.9-54.9 16.6-91.5 21.9-54.7 59-85.9 78.8-102.2 29.6-24.4 59.5-39.1 83.6-48.3 0 0-73.9 39.9-101.2 72.6-27.3 32.6-45.3 51.9-59.2 105.8-11.1 42.9-9.6 55.9-8.5 59.4 0.5 0.5 1.2 0.7 1.9 0.7l15.9-5.8c0.1-0.1 0.2-0.2 0.3-0.2l0.4-0.4c-0.8-22.2 1.5-53.1 15-86.2 20.2-49.5 54.6-77.4 74.8-93.5 28.5-22.6 56.3-35.5 76.5-43-0.5 0.4-68.4 35.9-101.2 75.2-30.6 36.7-40.9 61.3-49.3 97.9 0 0-3.4 35.5-3.4 44.8 0 0.2 0.1 0.4 0.1 0.6 0.4 0.5 0.9 0.7 1.6 0.7l16.8-5.2c0.4-0.3 0.7-0.8 0.8-1.4-1-21.4 1-51.9 15.5-83.7 11.8-25.9 27.6-43.3 37.9-54.7 5.3-5.9 18.5-19.9 38.4-34.7 20.8-15.5 40.9-25.9 57.5-32.8 0 0-48.6 29.3-65.2 45.9s-40.6 41.3-55.9 73.2c-14.2 29.6-20.1 68.3-19.1 82.1 0.1 0.3 0.2 0.7 0.3 1 0.2 0.2 0.3 0.3 0.4 0.5 0.4 0.2 0.8 0.3 1.2 0.4h0.5l21.1-8.6 0.6-0.6c0.1-0.2 0.1-0.5 0.2-0.8 0.6-31.5 8.2-55.5 14.1-70.1 17.3-42.8 45.6-68.1 60.2-80.9 15.8-13.8 30.5-22.8 38.4-27.4 11.1-6.3 22.1-12.6 37.9-17.4 25-7.5 52.6-8.2 52.6-8.2l-96.7 49-2.4 1.5c-2.6 2.6-4.4 5.7-4.8 9.5v138.4l156.5 68.2c0.3 0 0.5 0.2 0.7 0.3l5.3 2.3c0.2 0 0.5 0.1 0.7 0.1 0.8 0.2 1.6 0.5 2.5 0.6 1.8-0.4 3.5-0.9 4.9-2 0.1-0.1 0.1-0.2 0.2-0.4l0.3-0.6c-0.1-158.1-0.1-274.4-0.4-276.6z" fill="#040006"/>
		<path class="st4" d="m91.4 39.7c-2.2-0.5-3.8 1.2-5.3 2.7-2.5 8-13.7 29.9-59.2 23.8 0 0-30 27.3-26.6 77.9 0 0 26-41.9 46.6-27.3s27.3 17.5 37.9 12.1v175.1c0.2 0.5 0.4 1 0.5 1.5 2.3 2.1 9.6 1.8 11.3-1.1v-262.7c-0.6-1-3.8-1.7-5.2-2z" fill="#040006"/>
		<path class="st6" d="m96.5 41.7v262.7s-7.3 6.4-11.7-0.4v-175.1" fill="none" stroke="#fafafa" stroke-miterlimit="10" stroke-width="2"/>
		<path class="st4" d="m484 316.8c-0.1-0.1-0.2-0.2-0.3-0.2-0.1-0.1-0.1-0.1-0.1-0.2-0.6-0.4-1.3-0.7-2-1.1l-0.1-0.1-154.7-66.9h-50l-195.1 69.2c-0.1 0.2-0.3 0.3-0.4 0.5 0 0.2-0.1 0.4-0.1 0.6 0.1 0.3 0.2 0.6 0.3 1l0.2 0.2 0.3 0.3h401.5c1-0.2 1.3-0.7 1.1-1.9-0.3-0.6-0.4-1-0.6-1.4z" fill="#040006"/>
	</g>
	<g class="st3" display="inline" fill="#fff">
		<polygon class="st8" points="358.4 126.8 380.4 126.8 380.4 134.8 349.1 134.8 349.1 107.5 358.4 107.5"/>
		<polygon class="st8" points="358.4 169.4 380.4 169.4 380.4 177.4 349.1 177.4 349.1 150.1 358.4 150.1"/>
		<polygon class="st8" points="358.4 214 380.4 214 380.4 222 349.1 222 349.1 194.7 358.4 194.7"/>
		<polygon class="st8" points="394.2 177.4 426.1 177.4 426.1 185.4 385.7 185.4 385.7 153.2 394.2 153.2"/>
		<polygon class="st8" points="445.8 185.4 490.3 185.4 490.3 197.6 433.6 197.6 433.6 153.2 445.8 153.2"/>
		<polygon class="st8" points="394.4 122.5 426.4 122.5 426.4 130.5 385.9 130.5 385.9 98.3 394.4 98.3"/>
		<polygon class="st8" points="394.4 233.8 426.4 233.8 426.4 241.8 385.9 241.8 385.9 209.6 394.4 209.6"/>
		<polygon class="st8" points="445.8 113.7 490.3 113.7 490.3 126 433.6 126 433.6 81.5 445.8 81.5"/>
		<polygon class="st8" points="445.8 255.9 490.3 255.9 490.3 267.8 433.6 267.8 433.6 224.8 445.8 224.8"/>
	</g>
</g>
<g class="st2" transform="translate(-34 -273.61)" display="none">
	<path class="st9" d="m512 303.1-8.8-62.5c-0.7-2.8-2.8-4.7-5.7-6-0.8-0.1-1.6-0.2-2.3-0.3h-179.7v-72.2l-59.1-119.6v-11.9c-0.7-2.1-1.8-3.7-3.2-5-0.5-0.3-1-0.5-1.5-0.8l-65-14.4c-1.3 0.1-2.6 0.3-3.8 0.4l-123.3 22.8c-0.7 0.3-1.4 0.5-2.1 0.7-2.9 1.9-5.5 4.3-7.6 7.6l-48.2 129.8c-0.2 1.6-0.3 3.2-0.4 4.8v104.6l0.3 1.8c0.3 0.9 0.5 1.7 0.7 2.6 0.2 0.4 0.4 0.9 0.7 1.3 5.3 9.9 13.9 23.1 26.3 24.1h286.7c2.9-0.4 4.6-2.6 5.7-5.3 0.1-0.7 0.2-1.5 0.3-2.2v-50h73.2l1 49.9c0.1 0.4 0.2 0.9 0.3 1.4 0.1 3.5 3.1 5.3 7 6.2h102.5c2.2-1.1 4.4-2.5 5.6-4.5 0-0.1 0-0.1 0.1-0.2 0.1-0.4 0.2-0.7 0.3-1.1 0-0.6-0.1-1.3 0-2z" display="inline" fill="#040006"/>
	<g class="st3" display="inline" fill="#fff">
		<polygon class="st8" points="257.6 208 298.3 232.3 298.3 210.6 257.6 176.7 41.9 176.7 10.1 225.7 10.1 235.8 36.4 208"/>
		<path class="st8" d="m10.1 193.4v13.1l31.8-57s162.3-18.7 215.7 0l37.7 43.4v-17.2l-40.4-59.6s-67.6-16.2-139.8-6.1-68.1 10.8-68.1 10.8z"/>
		<polygon class="st8" points="178.7 68.2 178.7 35.4 52.5 59.6 13.6 161.9 13.6 171.7 50 86.4"/>
		<polygon class="st8" points="293.4 146.5 293.4 129 259.1 66.7 259.1 94.3"/>
	</g>
	<g class="st3" display="inline"><g fill="#fff">
		<path class="st8" d="m250.8 55.1c-0.4 0.8-1.1 1-2 0.9s-1.8 0-2.7-0.2c0.8-0.3 1.6-0.5 2.4-0.8v-0.2l-2.4 0.3c0-0.1-0.1-0.1-0.1-0.2 1.4-0.6 2.7-1.2 4.1-1.7 0.2-0.1 0.5 0.3 0.7 0.4v1.5z"/>
		<path class="st8" d="m195.6 41.4c0.4-6 2-11.5 5.9-16.2-0.5 1.5-1.1 3.1-1.6 4.6-1.1 3.4-1.5 7-1.7 10.5 0 0.3-0.3 0.6-0.5 0.9-0.1-0.3-0.4-0.6-0.4-1 0.2-2.5 0.4-5 0.7-7.7-1.1 2.6-1.6 5.3-1.6 8 0 0.4-0.3 0.7-0.4 1.1l-0.4-0.2z"/>
		<path class="st8" d="m236.9 25.2c3 3.6 4.6 7.7 5.4 12.2 0.2 1 0.3 2 0.4 3 0 0.4-0.2 0.8-0.4 1.2-0.2-0.4-0.4-0.7-0.4-1.1-0.5-2.4-0.9-4.9-1.4-7.3-0.1-0.3-0.3-0.6-0.3-0.7 0.2 2.3 0.5 4.8 0.7 7.2 0 0.2 0.1 0.3 0 0.5-0.1 0.3-0.2 0.7-0.4 1-0.2-0.3-0.5-0.6-0.5-0.9-0.1-1.2-0.1-2.4-0.3-3.6-0.3-4-1.3-7.8-2.8-11.5z"/>
		<path class="st8" d="m234.7 24.7c2.4 2.9 3.9 6.2 4.4 9.9 0.2 1.3 0.2 2.6 0.3 4 0 0.3-0.3 0.5-0.4 0.8-0.1-0.3-0.4-0.5-0.4-0.8-0.3-2.2-0.5-4.3-0.8-6.5 0-0.1-0.1-0.3-0.1-0.3v5.6c0 0.4 0 0.8-0.1 1.1s-0.4 0.5-0.7 0.8c-0.1-2.7-0.1-5.1-0.5-7.5-0.3-2.4-1.1-4.7-1.7-7.1z"/>
		<path class="st8" d="m201.2 39.1c-0.2-0.4-0.5-0.7-0.5-1.1v-6.5c-0.8 1.7-1 4-1 6.3 0 0.5-0.2 1-0.4 1.5-0.1-0.5-0.4-1-0.4-1.6 0.1-4.7 1.4-9 4.3-12.7 0.1-0.1 0.2-0.2 0.3-0.4 0 0 0.1 0 0 0-0.6 2.3-1.3 4.6-1.7 7s-0.3 4.8-0.4 7.2c0 0.1-0.1 0.2-0.2 0.3z"/>
		<path class="st8" d="m194.3 36.1c-0.2 0.8-0.3 1.7-0.5 2.8-0.2-0.4-0.4-0.6-0.4-0.8 0.2-1.3 0.4-2.7 0.6-4 0.2-1.1 1-1.4 2-1.1-0.3 3.1-0.7 6.2-1.1 9.2 0 0.1-0.3 0.1-0.7 0.4 0.1-2.3 0.3-4.4 0.4-6.5h-0.3z"/>
		<path class="st8" d="m243.9 42.5c-0.2-0.2-0.5-0.5-0.5-0.7-0.3-2.9-0.6-5.8-0.8-8.8 1-0.4 1.6 0 1.9 1.1 0.4 1.5 0.7 3 0.5 4.5-0.1 0-0.2 0-0.3 0.1-0.2-0.8-0.3-1.7-0.5-2.5h-0.3c0.1 2.1 0.3 4.1 0.4 6.2-0.2 0-0.3 0.1-0.4 0.1z"/>
		<path class="st8" d="m236.9 51.7c-0.4 0-0.8 0-1.1-0.1-1.6-0.6-2.4-3-1.4-4.5 1.2-1.9 1.8-4 1.9-6.2 0-0.2 0.2-0.5 0.3-0.7 0.2 0 0.3 0.1 0.5 0.1-0.2 1.2-0.3 2.5-0.5 3.6-0.2 0.9-0.6 1.8-1 2.6-1.3 2.5-1.1 3.6 1.3 4.9v0.3z"/>
		<path class="st8" d="m201.7 40.1c0.1 0.3 0.3 0.6 0.3 0.9 0.1 2.1 0.7 4.1 1.8 5.9 0.7 1.2 0.6 2.5-0.1 3.7-0.5 0.8-1.2 1.3-2.2 1.2-0.2-0.2-0.3-0.4-0.5-0.5 0.3 0 0.6 0 0.8-0.2 1.7-0.8 2.2-2.4 1.2-4-1.2-1.9-1.7-4-1.8-6.3 0-0.2 0.1-0.4 0.1-0.6 0.3 0 0.3 0 0.4-0.1z"/>
		<path class="st8" d="m192 53.4c-1.3-0.4-2.7-0.7-4.3-1.1 0.4-1 0.8-1.9 1.3-3 1.4 1.2 2.7 2.3 3.9 3.3 0 0.1-0.1 0.1-0.1 0.2-0.8-0.3-1.6-0.6-2.3-0.8 0 0.1-0.1 0.1-0.1 0.2 0.6 0.4 1.1 0.8 1.7 1.2-0.1-0.1-0.1-0.1-0.1 0z"/>
		<path class="st8" d="m247.9 51.9c-0.7 0.3-1.5 0.5-2.2 0.8 0-0.1-0.1-0.1-0.1-0.2 1.2-1 2.4-2.1 3.8-3.3 0.5 1 0.9 1.9 1.4 3-1.6 0.4-3 0.8-4.3 1.2 0-0.1 0-0.1-0.1-0.2 0.5-0.4 1.1-0.7 1.6-1.1 0-0.1-0.1-0.1-0.1-0.2z"/>
		<path class="st8" d="m244 51.1c1.1-1.7 1.9-3.2 2.9-4.8 0.5 0.5 1 0.9 1.3 1.3 0.2 0.3 0 1-0.2 1.2-0.9 0.8-1.8 1.4-2.8 2.1-0.2 0.2-0.6 0.1-1.2 0.2z"/>
		<path class="st8" d="m188.1 53.1c1.5 0.6 3 1.2 4.5 1.9v0.2c-0.9-0.1-1.7-0.2-2.6-0.4 0 0.1 0 0.2-0.1 0.2 0.7 0.3 1.5 0.5 2.2 0.8v0.2c-1.2 0-2.5 0.1-3.7 0-0.8-0.1-1-1.7-0.3-2.9z"/>
		<path class="st8" d="m194.4 51.1c-0.6 0-0.9 0-1.1-0.1-1-0.7-2-1.5-3-2.2-0.7-0.5-0.3-1 0-1.5 0.3-0.4 0.7-0.6 1.2-1 0.9 1.6 1.8 3.1 2.9 4.8z"/>
		<path class="st8" d="m240.2 64.4c0.1-0.6 0.2-1.3 0.3-2.2 0.5 1.2 0.9 2.2 1.3 3.2-1 1-2.2 0.9-3.5 0.7 0.2-1.1 0.4-2.2 0.7-3.5 0.4 0.7 0.7 1.3 1 1.8h0.2z"/>
		<path class="st8" d="m233.6 66.8c0.3-0.9 0.6-1.8 0.9-2.5 0.5 0.6 0.9 1.1 1.3 1.7 0.4-0.6 0.8-1.1 1.3-1.8 0.2 0.8 0.4 1.6 0.7 2.5-1.4 1-2.7 0.8-4.2 0.1z"/>
		<path class="st8" d="m200.1 66.4c-1.3-0.2-2.4-0.4-3.7-0.6 0.5-1.3 0.9-2.3 1.4-3.6 0.1 1 0.2 1.7 0.3 2.3h0.3c0.3-0.5 0.6-1.1 0.9-1.9 0.3 1.3 0.6 2.4 0.8 3.8z"/>
		<path class="st8" d="m244 44.1c0.5 0.3 0.9 0.4 1.2 0.6 1.1 0.7 1.2 1.1 0.4 2.2-0.4 0.5-0.8 1.1-1.2 1.6-0.1 0.2-0.5 0.2-0.7 0.2-0.1 0-0.3-0.4-0.3-0.5 0.2-1.3 0.4-2.6 0.6-4.1z"/>
		<path class="st8" d="m201.1 64.1c0.7 0.8 1.1 1.4 1.5 2 0.4-0.6 0.8-1.1 1.2-1.7 0.3 0.7 0.6 1.6 0.9 2.4-0.1 0.1-0.2 0.2-0.4 0.3-1.2 0.5-2.5 0.8-3.4-0.1-0.3-0.6 0.2-1.9 0.2-2.9z"/>
		<path class="st8" d="m215.9 45c-0.3-1.2 0.6-2 1.2-3-0.2-0.2-0.4-0.5-0.6-0.8 2.3-0.3 4.6-0.5 6.8-0.8 0.1 0 0.2 0.1 0.4 0.2-0.2 0.2-0.3 0.5-0.4 0.5-0.9 0.2-1.9 0.4-2.8 0.4-2 0.1-3.1 0.9-3.8 2.8-0.1 0.3-0.2 0.5-0.3 0.8-0.2 0-0.4 0-0.5-0.1z"/>
		<path class="st8" d="m194.4 44c0.2 1.6 0.4 2.9 0.6 4.1 0 0.2-0.1 0.6-0.2 0.7-0.2 0.1-0.6 0-0.7-0.2-0.6-0.7-1.2-1.4-1.6-2.2-0.1-0.2 0-0.8 0.2-1 0.3-0.5 0.9-0.8 1.7-1.4z"/>
		<path class="st8" d="m229.1 45.5c-1.3-0.8-2.3-0.5-3.4 0.2-0.9 0.6-1.9 1-2.8 1.4-0.1 0.1-0.4 0-0.4 0-0.1-0.2-0.1-0.4 0-0.5 0.3-0.2 0.5-0.5 0.9-0.6 1.3-0.6 2.7-1.2 4.1-1.9-0.8-0.3-1.5-0.6-2.4-1 1.7-0.6 3.3 0.4 4 2.4z"/>
		<path class="st8" d="m250.2 57.4c-0.2 0.6-0.2 1.1-0.4 1.5-0.6 1.2-1 1.3-2.2 0.6-0.5-0.3-1.1-0.6-1.5-1.2 0.4 0 0.8 0 1.1 0.1 0.3 0 0.7 0.1 1.1-0.1-0.6-0.2-1.3-0.5-1.9-0.7v-0.1c1.1-0.1 2.3-0.1 3.8-0.1z"/>
		<path class="st8" d="m190.3 58.4c0.7-0.1 1.4-0.1 2.1-0.2 0 0.1 0.1 0.1 0.1 0.2-0.8 0.5-1.6 1-2.4 1.4-0.2 0.1-0.8-0.2-1-0.4-0.4-0.6-0.7-1.3-1-2.1h4.4c-1 0.4-1.6 0.6-2.3 0.9 0 0.1 0.1 0.2 0.1 0.2z"/>
		<path class="st8" d="m202 49.7c-0.1-0.2-0.2-0.4-0.2-0.6-0.2-1.1-0.4-2.3-0.6-3.4-0.3-1.3-0.6-2.6-0.8-3.9-0.1-0.4 0.1-0.8 0.2-1.4 0.7 1.4 2 8.4 1.4 9.3z"/>
		<path class="st8" d="m195.6 61.5l-0.6 1.8c0.1 0.1 0.2 0.1 0.2 0.2 0.4-0.4 0.8-0.7 1.4-1.3-0.2 0.9-0.4 1.5-0.6 2.1-0.1 0.4-0.6 1-0.6 0.9-0.7-0.4-1.4-0.8-2-1.4-0.1-0.1 0.2-0.7 0.4-1 0.5-0.5 1-1 1.6-1.4 0.1 0 0.2 0.1 0.2 0.1z"/>
		<path class="st8" d="m242.6 61.1c0.8 0.7 1.4 1.2 2 1.8 0.2 0.3 0.4 0.9 0.3 1-0.6 0.5-1.2 0.9-1.9 1.3-0.1 0-0.5-0.5-0.7-0.9-0.2-0.6-0.3-1.2-0.6-2.1 0.6 0.5 1 0.9 1.4 1.3 0.1 0 0.1-0.1 0.2-0.1-0.1-0.7-0.3-1.3-0.7-2.3z"/>
		<path class="st8" d="m237.9 40.6c0.7 3.4-1.7 6-1.5 9.1-0.6-0.7 0.6-8.1 1.5-9.1z"/>
		<path class="st8" d="m193.1 34.4c-0.3 2.3-0.1 4.8-2.8 6.4 0.9-2.3 1.7-4.4 2.5-6.5 0.1 0 0.2 0 0.3 0.1z"/>
		<path class="st8" d="m245.7 34.3c0.8 2.1 1.6 4.2 2.5 6.5-2.6-1.6-2.6-4.1-2.8-6.4 0 0 0.1-0.1 0.3-0.1z"/>
		<path class="st8" d="m194.4 59.5c-0.6 0.5-1.2 0.9-1.9 1.4 0 0.1 0.1 0.1 0.1 0.2 0.6-0.3 1.2-0.6 1.9-0.9 0 0.1 0.1 0.1 0.1 0.2-0.7 0.8-1.4 1.6-2.2 2.6-0.6-0.7-1.1-1.4-1.7-2.2 1.4-0.6 2.5-1 3.6-1.5 0 0.1 0.1 0.2 0.1 0.2z"/>
		<path class="st8" d="m244.2 59.4c1.1 0.4 2.1 0.8 3.5 1.4-0.6 0.8-1.1 1.4-1.6 2.3-0.9-1-1.6-1.8-2.3-2.7 0-0.1 0.1-0.1 0.1-0.2 0.6 0.3 1.3 0.6 1.9 0.9 0-0.1 0.1-0.1 0.1-0.2-0.6-0.5-1.2-0.9-1.8-1.4 0.1 0 0.1 0 0.1-0.1z"/>
		<path class="st8" d="m242.9 54.4c-0.7 0.1-1.2 0.2-2 0.3 1.1-0.8 1.9-1.4 3-2.2 0.4 0.8 0.7 1.5 1.1 2.3-1.2 0.2-2.1 0.4-3 0.5l-0.1-0.1c0.3-0.2 0.6-0.5 1-0.8z"/>
		<path class="st8" d="m196.5 55.3c-0.9-0.1-1.9-0.3-3-0.5 0.3-0.8 0.6-1.5 1-2.4 1.1 0.8 1.9 1.4 2.8 2 0 0.1 0 0.1-0.1 0.2-0.5-0.1-1-0.2-1.8-0.3l1.2 0.8c-0.1 0.1-0.1 0.2-0.1 0.2z"/>
		<path class="st8" d="m235.7 60.2c0 0.8 0.4 1.9 0 2.4s-1.5 0.3-2.7 0.5c0.5-1.2 0.8-2 1.2-3 0.2 0.6 0.3 1 0.5 1.4h0.2c0.1-0.5 0.3-0.9 0.4-1.4 0.3 0.1 0.4 0.1 0.4 0.1z"/>
		<path class="st8" d="m202.9 60.2c0.2 0.5 0.3 0.9 0.6 1.6 0.2-0.6 0.4-1 0.6-1.6 0.4 1 0.7 1.7 1 2.5-0.1 0.1-0.1 0.3-0.2 0.4-0.8-0.1-2 0-2.3-0.5-0.4-0.5 0-1.6 0.1-2.4h0.2z"/>
		<path class="st8" d="m238.4 60.8c0.1-0.7 0.2-1.2 0.3-1.6 0.1 0 0.2 0 0.2-0.1 0.2 0.7 0.8 1.7 0.6 2-0.5 0.7-1.5 1-2.2 1.5l-0.3-0.3c0.1-0.8 0.3-1.7 0.5-2.7 0.3 0.4 0.6 0.7 0.9 1.2z"/>
		<path class="st8" d="m196.7 42.8v4.2c-0.2-0.2-0.5-0.3-0.6-0.5-0.3-0.6-0.5-1.2-0.7-1.8-0.5-1.2-0.4-1.4 1.3-1.9z"/>
		<path class="st8" d="m241.7 46.9v-3.9c1.6 0 1.8 0.4 1.3 1.7-0.3 0.8-0.6 1.6-0.9 2.3-0.1 0-0.2-0.1-0.4-0.1z"/>
		<path class="st8" d="m200 60.8c0.4-0.6 0.5-0.8 0.9-1.4 0.2 1.1 0.4 1.9 0.5 2.8-2.5-0.1-3.1-1.1-1.8-3.3 0.2 0.6 0.3 1.2 0.4 1.9z"/>
		<path class="st8" d="m241.5 59.6c-0.3-0.8-0.4-1.4-0.7-2.2 0.6 0.5 1 0.8 1.4 1.3 0.2 0.3 0.6 0.9 0.5 1-0.4 0.5-1 0.8-1.6 1.1-0.1 0-0.5-0.6-0.7-0.9-0.2-0.4-0.2-0.8-0.4-1.5 0.6 0.4 0.9 0.7 1.5 1.2z"/>
		<path class="st8" d="m195.1 31.6c1.4-1.9 2.9-3.8 4.2-5.6l-2.7 5.7c-0.1 0.3-0.7 0.3-1.1 0.5-0.1-0.2-0.2-0.4-0.4-0.6z"/>
		<path class="st8" d="m197.6 57.4c-0.3 0.8-0.4 1.3-0.7 2.2 0.6-0.5 0.9-0.8 1.4-1.2-0.1 0.6-0.2 1-0.3 1.4-0.2 0.4-0.5 0.7-0.7 1.1-0.5-0.4-1.1-0.7-1.6-1.1-0.1-0.1 0.3-0.8 0.6-1.1 0.3-0.5 0.7-0.8 1.3-1.3z"/>
		<path class="st8" d="m248.9 46.3c-0.3-0.6-0.7-1.2-1-1.8-0.3 0.3-0.5 0.6-0.8 1-0.1-0.1-0.2-0.1-0.2-0.2 0.1-1.1 0.1-2.3 0.2-3.4 0.1 0 0.2-0.1 0.3-0.1 0.6 1.5 1.3 2.9 1.9 4.4-0.2 0.1-0.3 0.1-0.4 0.1z"/>
		<path class="st8" d="m195.7 49.6c0.8 1.4 1.4 2.6 2 3.7-0.1 0-0.2 0.1-0.3 0.1-0.8-0.5-1.6-1-2.3-1.5-0.9-0.9 0.2-1.3 0.6-2.3z"/>
		<path class="st8" d="m242.5 49.8c1.4 1.3 1.3 1.6-0.1 2.5-0.5 0.3-1 0.8-1.5 1.2-0.1 0-0.2-0.1-0.3-0.1 0.7-1.2 1.3-2.3 1.9-3.6z"/>
		<path class="st8" d="m191.3 45.5c-0.2-0.3-0.5-0.6-0.7-0.9-0.3 0.6-0.7 1.1-1 1.7-0.1 0-0.2-0.1-0.2-0.1 0.6-1.4 1.2-2.9 1.8-4.3 0.1 0 0.2 0 0.3 0.1 0.1 1.1 0.1 2.3 0.2 3.4-0.2 0-0.3 0.1-0.4 0.1z"/>
		<path class="st8" d="m243.3 31.9c-1.1 0.3-1.5 0.3-1.8-0.7-0.5-1.5-1.3-2.8-1.8-4.4 1.2 1.7 2.4 3.3 3.6 5.1z"/>
		<path class="st8" d="m197 56.1c-0.6 0.3-0.9 0.4-1.3 0.6 0.3 0.1 0.5 0.1 0.9 0.2-0.9 0.5-1.7 0.8-2.6 1.2-0.6-1.9-0.3-2.2 3-2z"/>
		<path class="st8" d="m244.5 58.3l-2.8-1.4c0.4-0.1 0.6-0.1 0.9-0.2-0.4-0.2-0.7-0.3-1-0.5v-0.2c0.7 0 1.5-0.1 2.2 0 1.3 0.4 0.6 1.4 0.7 2.3z"/>
		<path class="st8" d="m239.8 45.9v-3.8c1.4 0.1 1.5 0.3 1.1 1.4-0.3 0.9-0.5 1.7-0.8 2.5 0 0-0.2-0.1-0.3-0.1z"/>
		<path class="st8" d="m198 51.4c-0.3-0.6-0.6-1.3-0.9-1.9-0.8-1.3-0.7-1.5 1.1-1.8 0.1 1.2 0.2 2.5 0.2 3.7h-0.4z"/>
		<path class="st8" d="m240.2 47.5c0.7 0.3 1.2 0.6 1.7 0.8-0.6 1.1-1.1 2.1-1.6 3h-0.3c0.1-1.2 0.2-2.3 0.2-3.8z"/>
		<path class="st8" d="m198.6 41.6v4.3c-0.1 0-0.2 0.1-0.4 0.1-0.3-1.1-0.7-2.3-0.9-3.4 0-0.2 0.6-0.5 1.3-1z"/>
		<path class="st8" d="m245.9 41.9c-0.1-0.3-0.2-0.5-0.3-0.9-0.1 0.8-0.2 1.5-0.3 2.2h-0.3v-3.4c1-0.1 1.4 0.6 0.9 2.1z"/>
		<path class="st8" d="m238.2 46.1c0.2-1.5 0.5-2.9 0.7-4.6 0.8 1 0.4 4-0.7 4.6z"/>
		<path class="st8" d="m199.5 41.7c0.2 1.5 0.4 3 0.7 4.7-1-0.8-1.5-3.3-1-4.6 0.1 0 0.2-0.1 0.3-0.1z"/>
		<path class="st8" d="m192.9 41c-0.1 0.4-0.2 0.6-0.3 0.9-0.6-1.4-0.2-2.1 1-2.1v3.4c-0.1 0-0.3 0-0.4 0.1-0.1-0.7-0.2-1.4-0.3-2.3z"/>
		<path class="st8" d="m218.2 46.2c0.8-1 1.5-1.8 2.3-2.7 0.2 1.2-1.1 2.9-2.3 2.7z"/>
		<path class="st8" d="m244.4 32.2c-1.4-0.7-0.8-2.7-2.2-3.3 0.1-0.1 0.3-0.2 0.4-0.3 0.8 1.1 1.5 2.1 2.3 3.2-0.2 0.2-0.3 0.3-0.5 0.4z"/>
		<path class="st8" d="m195.9 28.7c-0.4 1-0.8 2.1-1.3 3.1-0.1 0.2-0.5 0.3-0.8 0.4l-0.3-0.3c0.8-1.1 1.5-2.2 2.3-3.3l0.1 0.1z"/>
		<path class="st8" d="m199.2 50c-0.2-1.3-0.4-2.3-0.6-3.5 1.2 1 1.4 2.1 0.6 3.5z"/>
		<path class="st8" d="m239.8 46.8c-0.2 1-0.3 2-0.5 3-0.8-1.1-0.6-2.1 0.1-3h0.4z"/>
		<path class="st8" d="m216.6 45.8c0.7-0.9 1.2-1.6 1.8-2.4 0.3 1-0.7 2.4-1.8 2.4z"/>
		<path class="st8" d="m225.3 42c-0.4 0.7-0.9 1.4-1.3 2.1-0.2-0.1-0.3-0.2-0.5-0.3 0.4-0.7 0.9-1.4 1.3-2.2 0.1 0.2 0.3 0.3 0.5 0.4z"/>
		<path class="st8" d="m220.2 46.6l1.5-1.8c0.1 0.1 0.2 0.1 0.4 0.2-0.2 0.5-0.4 1.1-0.7 1.6-0.2 0.2-0.7 0.2-1 0.3-0.2-0.1-0.2-0.2-0.2-0.3z"/>
		<path class="st8" d="m216.2 45.7c-0.3 0.8-0.5 1.5-0.7 2.2-0.1 0-0.2 0-0.3 0.1-0.1-0.3-0.3-0.6-0.2-0.8 0.2-0.7 0.1-1.6 1.2-1.5z"/>
		<path class="st8" d="m223.2 43.1c-0.7-0.1-1.5-0.3-2.2-0.4 0-0.2 0.1-0.4 0.1-0.6 0.7 0.1 1.5 0.2 2.2 0.3-0.1 0.3-0.1 0.5-0.1 0.7z"/>
		<path class="st8" d="m237.9 49.8l-0.4-0.3c0.1-0.7 0.2-1.3 0.3-2 0.1 0 0.4 0.1 0.4 0.1-0.1 0.6-0.1 1.3-0.3 2.2z"/>
		<path class="st8" d="m200.5 49.6l-0.3-2.1c0.2 0 0.4-0.1 0.6-0.1 0.1 0.7 0.3 1.4 0.4 2-0.3 0.1-0.5 0.1-0.7 0.2z"/>
		</g><path class="st12" d="m222.1 77.6h-5.6v-23.1h-7.4v-4.1h20.2v4h-7.1c-0.1 7.8-0.1 15.4-0.1 23.2z" fill="none" stroke="#fff" stroke-miterlimit="10" stroke-width=".75"/>
		<path class="st12" d="m203.5 54.7h11.1v2.5h-2.7l0.1 32.9h14.5l-0.1-32.8h-2.6v-2.6h11.1v2.5h-2.9l0.2 34.2s0.8 4.6-3.6 4.6h-18.8s-3.2 0.5-3.4-3.5-0.3-35.3-0.3-35.3h-2.6z" fill="none" stroke="#fff" stroke-miterlimit="10" stroke-width=".75"/>
		<g fill="#fff">
			<path class="st8" d="m210.1 35v-3.3h1.4v3.3c0 0.5 0 0.9-0.1 1.1-0.1 0.3-0.2 0.5-0.4 0.6-0.1 0.2-0.3 0.3-0.6 0.4-0.2 0.1-0.5 0.1-0.8 0.1s-0.5 0-0.8-0.1c-0.2-0.1-0.4-0.2-0.6-0.4s-0.3-0.4-0.4-0.7-0.1-0.6-0.1-1.1v-3.3h1.4v3.4c0 0.3 0 0.5 0.1 0.6s0.2 0.2 0.3 0.2c0.2 0 0.3-0.1 0.3-0.2 0.2-0.1 0.3-0.3 0.3-0.6z"/>
			<polygon class="st8" points="213.2 31.7 215.2 34.1 215.2 31.7 216.6 31.7 216.6 37.1 216 37.1 214 34.8 214 37.1 212.6 37.1 212.6 31.7"/>
			<polygon class="st8" points="217.7 31.7 219.1 31.7 219.1 37.1 217.7 37.1"/>
			<polygon class="st8" points="220.9 37.1 220.9 33.1 219.8 33.1 220 31.7 223.3 31.7 223.4 33.1 222.3 33.1 222.3 37.1"/>
			<polygon class="st8" points="224 37.1 224 31.7 227 31.7 227.3 33.1 225.4 33.1 225.4 33.7 226.7 33.7 226.7 35.1 225.4 35.1 225.4 35.6 227.4 35.6 227 37.1"/>
			<path class="st8" d="m231.5 37.1c-0.1 0-0.2 0.1-0.3 0.1h-0.4c-0.9 0-1.5-0.3-2.1-0.8-0.5-0.5-0.8-1.2-0.8-2s0.3-1.5 0.8-2 1.2-0.8 2.1-0.8h0.3c0.1 0 0.2 0 0.3 0.1l0.1 1.6c-0.1-0.1-0.3-0.1-0.4-0.1h-0.4c-0.4 0-0.8 0.1-1 0.4-0.3 0.2-0.4 0.5-0.4 0.9s0.1 0.7 0.4 0.9 0.6 0.4 1 0.4c0.1 0 0.3 0 0.4-0.1 0.1 0 0.3-0.1 0.4-0.2z"/>
		</g>
	</g>
</g>
<g class="st2" transform="translate(-34 -273.61)" display="none">
	<g class="st3" display="inline"><g fill="#040006">
		<path class="st4" d="m342.1 308.4-0.1-18.9-23.4-3.4v17.2s23.4 5.1 23.5 5.1z"/>
		<path class="st4" d="m512 63c0-0.4-0.1-0.8-0.1-1.1-0.6-2-1.4-3.9-2.6-5.7-2.6-4-7-6.2-10.7-9.2-4.1-2.5-7.5-4.5-7.5-4.5-23.8-13.3-40.7-18.2-68.1-25.4-10-2.6-23.8-5.2-37.2-7.5-2.3-0.1-4.6-0.5-6.8-0.9-0.2 0-0.5 0-0.7-0.1-0.3-0.1-0.7-0.1-1-0.2-1.1-0.1-2.2-0.2-3.2-0.3-0.4 0-0.9 0.1-1.3 0.1-11.9-0.4-30.1 1.6-32.7 16v9.8l-21.3 11.7-27-15.1c-5-1.8-9.4-4.1-15.2-3.3-4.1 0.6-7.5 2.1-10.9 4.1l-252.4 170.1c-0.5 0.4-0.9 0.8-1.4 1.1-4.6 3.8-10.1 7.8-11.8 13.7l-0.1 56.4c1.6 5.3 4.6 9.7 11.1 10.8 0.6 0.1 1.1 0.3 1.5 0.5l39.2 4.5v-106.9l8.1-3.7v111.3l4.1-2.2 0.2-113.5 7.4-3.7 3 1-0.8 121.8 201.2 15.6h3l40.5-4.9v-237.8l21.5-11.1 2 254 150.5 3.5h0.7l3.2 0.1h0.6c6.8-0.6 14.4-2 14.6-10.2v-0.2c0-2.3 0.1-4.7 0.3-7z"/>
		<polygon class="st13" points="74.7 167 73.9 288.8 70.5 290.4 64.2 289.5 64.2 169.7 71.7 166" stroke="#fdfdfd" stroke-miterlimit="10"/>
		<polygon class="st13" points="59.9 287.3 51.8 286.5 51.8 177.9 59.9 174.1" stroke="#fdfdfd" stroke-miterlimit="10"/>
		</g><g stroke="#fdfdfd" stroke-miterlimit="10" stroke-width="2"><line class="st14" x1="276.3" x2="278.1" y1="27.3" y2="308.2" fill="#fff"/>
		<line class="st7" x1="339.9" x2="342.1" y1="37.8" y2="312.2" fill="none"/>
		<line class="st7" x1="318.6" x2="318.6" y1="45.7" y2="303.3" fill="none"/>
	</g></g>
	<g class="st3" display="inline" fill="#fff">
		<polygon class="st8" points="269.5 87.5 193 126.3 193 97.3 270.2 50.1"/>
		<polygon class="st8" points="187.8 180.3 139.1 195.3 139.1 173.1 187.8 152.2"/>
		<path class="st8" d="m139.1 129.1 48.7-29.2s0.7 27.9 0 28.1-48.7 24.3-48.7 24.3z"/>
		<polygon class="st8" points="135.9 154.4 103.6 170.4 103.6 151.1 135.9 130.9"/>
		<polygon class="st8" points="100.4 172 76.8 183.7 76.8 167.7 100.4 152.2"/>
		<polygon class="st8" points="100.4 243 76.8 246.3 76.8 229.9 100.4 225"/>
		<polygon class="st8" points="135 238.6 103.5 243 103.5 224 135 216.9"/>
		<polygon class="st8" points="186.7 233.2 139.1 238.6 139.1 215.9 186.7 204.8"/>
		<polygon class="st8" points="135 196.2 103.5 206.6 103.5 187.2 135 173.9"/>
		<polygon class="st8" points="100.4 207.8 76.8 214.9 76.8 198.4 100.4 188.9"/>
		<path class="st8" d="m193 203.4c1.1 0.2 77.2-17.7 77.2-17.7v36.7s-76.8 10.1-77.2 9.4c-0.4-0.6 0-28.4 0-28.4z"/>
		<polygon class="st8" points="270.2 290.1 192.8 285.9 192.8 257.6 270.2 253.7"/>
		<polygon class="st8" points="186.7 285.4 139.1 281.8 139.1 258.7 186.7 257.8"/>
		<polygon class="st8" points="270.2 153.8 193 178.7 193 150 270.2 118.1"/>
		<polygon class="st8" points="8 218.2 1.5 221.4 1.5 212.4 8 208.6"/>
		<path class="st8" d="m17.9 202.5c0.9-0.4 8.9-5.6 8.9-5.6v11.6s-9 5-8.9 4.7c0.1-0.2 0-10.7 0-10.7z"/>
		<polygon class="st8" points="39.2 202.5 28.4 207.9 28.4 196.3 39.2 189.6"/>
		<path class="st8" d="m9.1 207.9s7.4-4.4 7.2-4.4 0 10.4 0 10.4l-7.2 3.7z"/>
		<path class="st8" d="m41.1 188.9c0.3-0.3 9.9-6 9.9-6v13.2l-9.9 5.1z"/>
		<polygon class="st8" points="8 236.5 1.5 239 1.5 229.9 8 227.1"/>
		<polygon class="st8" points="16.3 234 9.1 236.1 9.1 226.6 16.3 223.6"/>
		<polygon class="st8" points="26.8 230.8 17.9 233.7 17.9 223.1 26.8 219.3"/>
		<path class="st8" d="m28.4 218.8 10.3-4.5v12.9s-10.4 2.8-10.3 2.7c0.2-0.1 0-11.1 0-11.1z"/>
		<polygon class="st8" points="51 223.1 41.1 226.2 41.1 214.1 51 209.2"/>
		<polygon class="st8" points="16.3 254.1 9.1 254.8 9.1 245.5 16.3 244"/>
		<polygon class="st8" points="26.8 252.8 17.9 254 17.9 243.5 26.8 241.7"/>
		<polygon class="st8" points="38.7 250.9 29.4 251.9 29.4 241.1 38.7 239"/>
		<polygon class="st8" points="51 249.4 41.1 250.4 41.1 238.1 51 236.1"/>
		<polygon class="st8" points="7.5 274 1.5 273.6 1.5 264.3 7.5 264.3"/>
		<polygon class="st8" points="16.8 274.4 8.6 274 8.6 264.4 16.8 264"/>
		<polygon class="st8" points="26.8 275.3 17.9 274.7 17.9 263.7 26.8 263.4"/>
		<polygon class="st8" points="38.7 275.8 28.7 275.3 28.7 263.4 38.7 263.1"/>
		<polygon class="st8" points="50.8 276.9 40.6 276.5 40.6 263.1 50.8 263.1"/>
		<polygon class="st8" points="7.5 254.8 1.5 255.3 1.5 246.9 7.5 245.5"/>
		<polygon class="st8" points="341.9 289.4 318.6 286 318.6 65.5 340.1 54.4"/>
	</g>
</g>
<g class="st2" transform="translate(-34 -273.61)" display="none">
	<g class="st3" display="inline">
		<g fill="#040006">
			<path class="st4" d="m421.7 187.4-394.8-59.6h-1c-4.5-0.1-10-0.2-13.8 2.6-0.7 0.5-1.3 1-1.8 1.6 0 0-0.6 0.9-0.8 1.3 0 0 0 0.1-0.1 0.1-0.2 0.5-0.4 1.1-0.7 1.6l-8.7 43.6v87.6c0 0.4 0.1 0.7 0.1 1.1 0.2 0.9 0.4 1.8 0.6 2.6 2.1 5.4 5.2 11 10.8 12.9 0.1 0 0.1 0 0.2 0.1l411 0.9z"/>
			<path class="st4" d="m510.1 296.8c0.6-1.2 1.1-2.4 1.5-3.7 0.1-0.2 0.1-0.5 0.2-0.7 0.1-0.9 0.1-1.8 0.2-2.7v-263.3c-1.1-4.9-3.2-8.8-8.2-9-0.4 0-0.8-0.1-1.1-0.1l-25 1v12.4l-46.7 22.6c-1.1 1-2.3 1.9-3.4 2.9-2.1 2.5-4.3 5.4-5.5 8.1-0.9 2.1-1.1 4.5-1.3 6.8l1.6 216.2c0.8 4.3 3.1 7.9 6.8 10.4 1 0.7 2.1 1.2 3.2 1.7 2 0.6 4.1 0.9 6.1 1.2l51.6 3c3.2 0 6.3-0.3 9.3-0.7 4-0.9 7.1-2.5 9.7-4.7 0.3-0.5 0.6-0.9 1-1.4z"/>
			<polygon class="st15" points="470.6 285.1 470.6 33.9 477.6 18.2 478.7 286" stroke="#fcfafb" stroke-miterlimit="10" stroke-width="1.5"/>
			</g><polygon class="st8" points="477.4 34.9 470.6 46.6 470.6 285.1 478.7 286" fill="#fff"/>
		<g fill="#fff">
			<polygon class="st8" points="111.4 240.7 54.6 238.3 54.6 218.6 111.4 222.3"/>
			<polygon class="st8" points="166.4 243.1 114.5 240.8 114.5 222.5 166.4 225.9"/>
			<path class="st8" d="m169.1 226.1s46.7 3 46.3 3c-0.3 0 0 16 0 16l-46.3-2z"/>
			<polygon class="st8" points="364.2 251.5 335.5 250.3 335.5 237 364.2 238.8"/>
			<polygon class="st8" points="414.9 253.7 414.9 242.1 371.9 239.3 371.9 251.9"/>
			<polygon class="st8" points="332.3 250.2 302.6 248.9 302.6 234.8 332.3 237"/>
			<polygon class="st8" points="258 247 217.8 245.2 217.8 229.3 258 231.9"/>
			<polygon class="st8" points="296.7 249.1 260.8 247.3 260.8 232.1 296.7 234.4"/>
			<polygon class="st8" points="111.4 274.4 54.6 274 54.6 254.6 111.4 256.3"/>
			<path class="st8" d="m114.5 256.4 52 1.6v16.4c0 0.3-52 0-52 0z"/>
			<polygon class="st8" points="215.4 275.1 169.6 274.8 169.6 258 215.4 259.4"/>
			<polygon class="st8" points="260.7 275.4 217.8 275.1 217.8 259.5 260.7 260.8"/>
			<polygon class="st8" points="279.9 282.8 265.7 282.8 265.7 260.8 279.9 261.3"/>
			<polygon class="st8" points="298.6 282.8 284 282.8 284 261.4 298.6 261.9"/>
			<polygon class="st8" points="332.3 275.9 302.6 275.7 302.6 262 332.3 262.9"/>
			<path class="st8" d="m335.5 263 28.7 0.9v12.2l-28.7-0.2c0.1 0 0-12.9 0-12.9z"/>
			<polygon class="st8" points="414.9 276.4 371.9 276.1 371.9 264.1 414.9 265.4"/>
			<polygon class="st8" points="297.5 193.9 260.8 189.6 260.8 171.4 297.5 176.7"/>
			<polygon class="st8" points="334.3 198 301.6 194.2 301.6 177.1 334.3 181.9"/>
			<polygon class="st8" points="365.4 201.6 338.2 198.4 338.2 182.4 365.4 186.4"/>
			<polygon class="st8" points="418.1 207.8 371.9 202.5 371.9 187.5 418.1 194.2"/>
			<polygon class="st8" points="296.7 223.1 260.8 220.4 260.8 199.7 296.7 204.2"/>
			<polygon class="st8" points="334.3 225.9 301.6 223.5 301.6 204.8 334.3 208.9"/>
			<polygon class="st8" points="365.4 228.3 338.2 226.3 338.2 209.4 365.4 212.9"/>
			<polygon class="st8" points="414.9 232.1 371.9 228.8 371.9 213.7 414.9 219.1"/>
		</g>
		<g stroke="#fff" stroke-miterlimit="10">
			<polygon class="st16" points="422.2 259.1 400.4 259.1 400.4 290.2 391.4 290.2 391.4 221.1 278.9 234.6 260.2 231.9 260.2 198.8 421.4 155.9" fill="#040006" stroke-width="2"/>
			<line class="st17" x1="260.2" x2="391.2" y1="231.9" y2="215.6" fill="none"/>
			<line class="st17" x1="391.4" x2="391.2" y1="221.1" y2="215.6" fill="none"/>
		</g>
		<g fill="#fff">
			<polygon class="st8" points="277.9 223.3 263.5 225.8 263.5 201.4 277.9 198"/>
			<path class="st8" d="m281.8 197 14.1-3.4v26.9s-13.8 2.2-14.1 2.3 0-25.8 0-25.8z"/>
			<polygon class="st8" points="315 217.3 299.5 220 299.5 192.8 315 189"/>
			<path class="st8" d="m319.9 187.9 18.7-4.5v30.2s-19.2 3.2-18.7 3.1c0.4-0.1 0-28.8 0-28.8z"/>
			<path class="st8" d="m342.6 182.4 22.4-5.4v32.4s-22.3 3.6-22.4 3.6 0-30.6 0-30.6z"/>
			<polygon class="st8" points="393.8 204.6 369.8 208.6 369.8 175.8 393.8 170.1"/>
			<polygon class="st8" points="421.7 200.3 399.1 203.9 399.1 168.8 421.5 163.4"/>
			<polygon class="st8" points="422.2 245.8 399.1 246.6 399.1 213 421.7 208.6"/>
		</g>
		<line class="st18" x1="422.2" x2="422.7" y1="257.7" y2="283.8" fill="none" stroke="#fff" stroke-miterlimit="10" stroke-width="2"/>
		<line class="st7" x1="10.6" x2="11.7" y1="132" y2="282.8" fill="none" stroke="#fdfdfd" stroke-miterlimit="10" stroke-width="2"/>
	</g>
</g>
<g class="st2" transform="translate(-34 -273.61)" display="none">
	<g class="st3" display="inline">
		<path class="st4" d="m511.8 169.1c-0.1-0.3-0.1-0.6-0.2-0.8-0.5-1-1.2-1.9-1.9-2.6-0.1-0.1-0.2-0.1-0.2-0.2l-0.3-0.3c-0.3-0.2-0.6-0.3-0.9-0.5l-1.8-0.9-203.7-75.3c-9.3-2.4-19-3.9-28.6-4.5-3.8-0.2-7.5-0.2-11.2-0.2l-63.5 7.8-44.9-12.4v-6.4c-0.6-1.6-1.3-2.9-2.8-3.8-0.3-0.2-0.5-0.3-0.8-0.4l-21-6.3c-1.3-0.2-2.5-0.3-3.8-0.3l-26.1 4.8-16.7-1c-0.3 0-0.5 0.1-0.8 0.2-0.7 0.5-1.3 1.2-1.6 2.2v2.2l-56.7 10.6h-0.1c-0.6 0.2-1.2 0.3-1.8 0.3-0.7 0.3-1.5 0.6-2.3 0.7-0.1 0-0.3 0.1-0.4 0.1h-0.1c-7.8 2.7-15 6.2-18.6 13.5l-0.3 1.5v145.1c0.1 0.5 0.2 0.9 0.3 1.5 0.7 7.1 7.3 11.5 14 14.3 0.5 0.1 0.9 0.2 1.4 0.3l111.6 1.9 67.5-3.3 91.7 0.5 212.4-4.3c2.7-0.4 5.4-1.1 7-3.1l0.6-0.9c0.1-0.3 0.1-0.6 0.2-0.9v-53.3h2.4c0.9-0.1 1.6-0.8 2.1-1.8v-0.2l0.1-21.9c-0.1-0.6-0.1-1.2-0.2-1.9z" fill="#040006"/>
		<g fill="#fff">
			<polygon class="st8" points="199.6 140.6 154.8 131.4 154.7 95.5 199.6 107.1"/>
			<polygon class="st8" points="199.6 178.8 154.7 172.5 154.5 140 199.6 147.8"/>
			<polygon class="st8" points="199.6 214.7 154.8 212.5 154.8 181.2 199.6 186.6"/>
			<polyline class="st8" points="287.3 96.3 317.5 106.7 317.5 129.8 287.3 121.2"/>
			<polygon class="st8" points="345.9 138 320.5 130.7 320.5 107.7 345.8 116.4"/>
			<polygon class="st8" points="371.8 145.4 348.9 138.8 348.9 117.5 371.8 125.4"/>
			<polygon class="st8" points="394 151.7 374.2 146.1 374.2 126.2 394 133"/>
			<polygon class="st8" points="413.5 157.3 396.1 152.3 396.1 133.7 413.5 139.7"/>
			<polygon class="st8" points="431.4 162.4 415.5 157.9 415.5 140.4 431.4 145.9"/>
			<polygon class="st8" points="447.2 166.9 432.9 162.9 432.9 146.4 447.2 151.3"/>
			<polygon class="st8" points="461.2 171 448.4 167.3 448.4 151.7 461.2 156.1"/>
			<polygon class="st8" points="474 174.6 462.5 171.3 462.5 156.6 474 160.6"/>
			<polygon class="st8" points="486.3 178.1 475.3 175 475.3 161 486.3 164.8"/>
			<polygon class="st8" points="496.2 181 487.1 178.4 487.1 165 496.2 168.1"/>
			<polygon class="st8" points="506.4 183.9 497.6 181.4 497.6 168.7 506.4 171.7"/>
			<polygon class="st8" points="510.8 185 507.3 184.1 507.3 172 510.8 173.2"/>
			<polyline class="st8" points="287.3 141.3 317.3 148.6 317.3 169 287.3 163.2 287.3 141"/>
			<polygon class="st8" points="347.2 174.6 320.5 169.6 320.5 149.4 347.2 155.8"/>
			<polygon class="st8" points="372.1 179.4 349.3 175 349.3 156.3 372.1 161.8"/>
			<polygon class="st8" points="394.1 183.6 374.3 179.8 374.3 162.3 394.1 167.1"/>
			<polygon class="st8" points="414 187.4 396.4 184 396.4 167.7 414 171.9"/>
			<polygon class="st8" points="431.9 190.8 415.7 187.7 415.7 172.3 431.9 176.2"/>
			<polygon class="st8" points="447.5 193.8 433.2 191 433.2 176.6 447.5 180"/>
			<polygon class="st8" points="461.7 196.5 449 194 449 180.4 461.7 183.4"/>
			<polygon class="st8" points="474.7 198.9 463.1 196.7 463.1 183.8 474.7 186.6"/>
			<polygon class="st8" points="486.4 201.2 475.7 199.1 475.7 186.8 486.4 189.4"/>
			<polygon class="st8" points="497 203.2 487.3 201.3 487.3 189.6 497 192"/>
			<polygon class="st8" points="506.4 204.8 498 203.4 498 192.2 506.4 194.2"/>
			<polygon class="st8" points="317.3 206.7 287.2 203.5 287.2 182.5 317.3 187.1"/>
			<polygon class="st8" points="347.2 209.8 320.5 207.1 320.5 187.6 347.2 191.6"/>
			<polygon class="st8" points="372.1 212.5 349.3 210.1 349.3 192 372.1 195.5"/>
			<polygon class="st8" points="394.1 214.8 374.3 212.7 374.3 195.8 394.1 198.8"/>
			<polygon class="st8" points="414 216.9 396.4 215 396.4 199.2 414 201.9"/>
			<polygon class="st8" points="431.9 218.7 415.7 217 415.7 202.1 431.9 204.6"/>
			<polygon class="st8" points="447.5 220.4 433.2 218.9 433.2 204.8 447.5 207"/>
			<polygon class="st8" points="461.7 221.9 449 220.5 449 207.2 461.7 209.2"/>
			<polygon class="st8" points="474.7 223.2 463.1 222 463.1 209.4 474.7 211.1"/>
			<polygon class="st8" points="486.4 224.5 475.7 223.3 475.7 211.3 486.4 212.9"/>
			<polygon class="st8" points="497 225.6 487.3 224.6 487.3 213.1 497 214.6"/>
			<polygon class="st8" points="506.4 226.6 498 225.7 498 214.7 506.4 216"/>
			<polyline class="st8" points="81.1 77.2 100.3 81.3 101.1 245.4 81.1 245.4 81.1 77.2"/>
			<polygon class="st8" points="283.3 222.3 199.6 222.3 199.6 257.6 283.3 257.5"/>
		</g>
		<g fill="none" stroke-miterlimit="10" stroke-width="2"><g stroke="#fff">
			<line class="st18" x1="127.9" x2="127.9" y1="62" y2="260.3"/>
			<line class="st18" x1="199.6" x2="200" y1="91.6" y2="258"/>
			<line class="st18" x1="154.6" x2="154.9" y1="79.2" y2="259"/>
			<line class="st18" x1="283.3" x2="283.3" y1="84.8" y2="258"/>
			</g><line class="st7" x1="81.1" x2="81.1" y1="70.4" y2="259.5" stroke="#fdfdfd"/>
			<line class="st7" x1="100.1" x2="101.2" y1="66.8" y2="259.9" stroke="#fdfdfd"/>
			<line class="st11" x1="199.6" x2="283.3" y1="257.6" y2="257.5" stroke="#040006"/>
		</g>
	</g>
</g>
<g class="st2" transform="translate(-34 -273.61)" display="none">
	<g class="st3" display="inline">
		<path d="m462.1 82.8v99.4c0 0.3 0 0.6-0.1 0.9-0.2 2.1-0.5 4.8-2.1 6.3-1 1-2.3 1.6-3.6 2.2l-315.4 76.4c-1.2 0.1-2.4 0.2-3.5 0.3v-266.9c1.9 0.2 3.9 0.4 5.8 0.8h0.3l314.4 73.6c0.3 0.1 0.6 0.2 0.9 0.4 0 0 0.2 0.1 0.3 0.2 0.2 0.2 0.5 0.3 0.7 0.4l0.1 0.1c1.3 1.5 2 3.5 2.2 5.9zm-327.2-81.6c-1.3 0-2.6 0.1-3.8 0.1l-57.5 13.4-17.8-6.7s-16.9 1.9-26.3 4.9c-3.2 1.8-5.4 3.9-6.5 7.2v231.6c0 0.2 0 0.4 0.1 0.6 0.7 2.1 2.6 3.5 5.1 4.5 3.6 1.5 7.5 1.2 11.3 1.9l15.6 1.6 18.6-1.5 29.8 6.5h0.8c1.9 0.2 3.7 0.4 5.6 0.7l23.1 2.4c1.5 0 3 0 4.4-0.1v-266.9c-0.9-0.1-1.7-0.1-2.5-0.2zm20.4 76.2 73.1 6.5v-45.5l-73.1-15.7zm78 7 55.6 5v-38l-55.6-11.9zm60.6 5 39.4 4v-32.4l-39.4-8.5zm43.1 4.3 30.9 2.8v-28l-30.9-6.7zm34.6 3.1 25.8 2.3v-24.4l-25.8-5.5zm28.8 2.5 18.7 1.7v-21.6l-18.7-4zm21 1.9 16 1.4v-19.3l-16-3.4zm18.1 1.4 12.4 1.3v-17.4l-12.4-2.1zm-284.2 40.3 73.1-2.6v-46.3l-73.1-5.7zm78-2.7 55.6-2v-39.5l-55.6-4.4zm60.6-2.2 39.4-1.4v-34.4l-39.4-3.1zm43.1-1.5 30.9-1.1v-30.5l-30.9-2.3zm34.6-1.2 25.8-0.9v-27.1l-25.8-2zm28.8-1 18.7-0.7v-24.6l-18.7-1.5zm21-0.8 16-0.6v-22.6l-16-1.3zm18.1-0.6 12.4-0.4v-20.9l-12.4-1zm-284.2 81 73.3-12.3v-49.5l-73.3 4.6zm78.2-13.1 55.6-9.3v-43.2l-55.6 3.5zm60.6-10.1 39.4-6.6v-38.6l-39.4 2.5zm43.1-7.2 30.9-5.2v-35l-30.9 1.9zm34.6-5.8 25.8-4.3v-31.9l-25.8 1.9zm28.6-4.8 18.9-3.2v-29.6l-18.7 1.4zm21.2-3.6 16-2.7v-27.7l-16 1.2zm18-3 12.2-2v-26.3l-12.2 0.9z"/>
		<g stroke-miterlimit="10" stroke-width="2">
			<line class="st18" x1="137.3" x2="137.3" y1="1.4" y2="268.4" fill="none" stroke="#fff"/>
			<polygon class="st14" points="55.7 22.7 73.6 30.1 73.6 258.9 54.9 260.4" fill="#fff" stroke="#fdfdfd"/><g fill="none">
			<line class="st11" x1="54.9" x2="73.6" y1="260.4" y2="258.9" stroke="#040006"/>
			<line class="st7" x1="55.8" x2="55.7" y1="8" y2="22.7" stroke="#fdfdfd"/>
			<line class="st7" x1="73.6" x2="73.6" y1="14.7" y2="30.1" stroke="#fdfdfd"/>
		</g></g>
		<g fill="#040006">
			<path class="st4" d="m177.9 286.6 70.2-21.7 70 24.4-57.7 30.7zm75.9 20.9 37.8-20.2-44.3-14.9-43.7 14.9z"/>
			<path class="st4" d="m277 253.4 44.7-13.9 63.1 13.9-38.1 20.3zm64.2 10 19.5-9.3-32.7-7.9-21.7 7.2z"/>
			<path class="st4" d="m357 228.6 39.4-12.2 46.4 6.1-32 17zm51 2.9 15.6-7.9-23.6-3.3-18.3 6.4z"/>
			<path class="st4" d="m462.6 195.9 30.2 3-30.2 13.1-36.5-4.5m38.2 0 15.4-7.1-17-1.7-19.9 6.4z"/>
		</g>
	</g>
</g>
<style type="text/css">
	.st0{display:none;}
	.st1{display:inline;}
	.st2{fill:#020000;}
	.st3{fill:#0F0E0F;}
	.st4{fill:#0A0909;}
	.st5{display:inline;fill:#020000;}
	.st6{fill:#040006;}
	.st7{fill:#040006;stroke:#FCFAFB;stroke-width:1.5;stroke-miterlimit:10;}
	.st8{fill:#FFFFFF;}
	.st9{fill:#040006;stroke:#FFFFFF;stroke-width:2;stroke-miterlimit:10;}
	.st10{fill:none;stroke:#FFFFFF;stroke-miterlimit:10;}
	.st11{fill:none;stroke:#FFFFFF;stroke-width:2;stroke-miterlimit:10;}
	.st12{fill:none;stroke:#FDFDFD;stroke-width:2;stroke-miterlimit:10;}
	.st13{fill:none;stroke:#040006;stroke-width:2;stroke-miterlimit:10;}
	.st14{fill:#FFFFFF;stroke:#FDFDFD;stroke-width:2;stroke-miterlimit:10;}
</style><g transform="matrix(.12308 0 0 .12308 .63013 5.7725)"><g class="st0" display="none">
	<g class="st1" display="inline"><g fill="#020000">
		<polygon class="st2" points="141.1 283.2 291.9 295.9 281.7 306.5 128.7 293.1"/>
		<path class="st2" d="m272.6 317.2 6-6-152.3-14-7.7 7.1c0.1 0.3 0.2 0.7 0.3 1 0.1 0.1 0.2 0.3 0.3 0.5l0.3 0.3c0.2 0.2 0.3 0.4 0.5 0.6 0.8 0.5 1.6 1 2.5 1.4l135.5 11.6h0.6c3.4 0 7.3-0.2 11-0.8 1-0.6 2-1.1 3-1.7z"/>
		<polygon class="st2" points="154.7 270.4 304.9 283.4 296.3 292.7 145.2 279.7"/>
		</g><g fill="#0f0e0f">
			<path class="st3" d="m475.5 52.7c-0.2-0.3-0.3-0.6-0.5-0.9-1.1-1-2-2.1-3-3.1-0.2-0.2-1.9-1.7-3.1-2.7l-32.7-9.8v251.3l35.7-20.2c3.2-3.5 5-7.6 6-12v-192.8c-0.1-3.4-1.1-6.7-2.4-9.8z"/>
			<path class="st3" d="m326.9 37v-12.2c-0.2-0.6-0.4-1.2-0.5-1.8-0.1-0.7-0.3-1.3-0.5-2-0.4-0.6-0.8-1.2-1.1-1.8-0.4-0.4-1.5-1.7-1.8-2-1.1-1.1-2.2-2-3.3-3-0.3-0.2-0.5-0.4-0.6-0.6-0.2-0.1-0.5-0.3-0.9-0.6-0.3-0.2-0.5-0.3-0.8-0.5l-33-12.5-119.2 5.8c-1.3 1.1-2.6 2.3-3.6 3.5-2.4 2.9-3.3 6.6-4.2 10.5v25.8l-112.6 2.8c-5.1 2.3-9 5.6-10.8 10.1v186.1c0 0.1 0.1 0.1 0.1 0.2 0.3 0.7 0.4 1.5 0.5 2.3 0.3 1 0.7 2 1.1 2.9 0 0 0.6 1.1 1.1 2.2 0.8 0.9 1.7 1.8 2.6 2.7h0.1c0.5 0.2 0.9 0.5 1.3 0.7l1.2 0.3 9.9 0.9 48.7 4.3 4.3 0.4 30.2 2.7 191.8 16.2 14.8 1 17.9 1.3 45.6 3.2 27.4 1.9v-252zm-260.8 215.2-14.2-1.2v-187.5h14.2zm34.5 2.9-14.8-1.2v-193.5h14.8zm34.5 2.9-17.6-1.5 1-196.7h16.6zm74.2-241.5c0.5-0.5 1.1-0.7 1.9-0.7h0.3c0.1 0 0.2 0 0.3 0.1l0.1 1.5c-0.1-0.1-0.2-0.1-0.3-0.1h-0.3c-0.4 0-0.7 0.1-0.9 0.3s-0.4 0.5-0.4 0.8 0.1 0.6 0.4 0.8c0.2 0.2 0.5 0.3 0.9 0.3 0.1 0 0.3 0 0.4-0.1 0.1 0 0.3-0.1 0.4-0.1l-0.1 1.5c-0.1 0-0.2 0.1-0.3 0.1h-0.4c-0.8 0-1.4-0.2-1.9-0.7s-0.7-1.1-0.7-1.8c-0.2-0.8 0.1-1.4 0.6-1.9zm-18 21.5v-3.8h18.5v3.7h-6.5v21.2h-5.1v-21.2c-2.4 0.1-4.7 0.1-6.9 0.1zm13.7-22.2h2.7l0.2 1.3h-1.7v0.5h1.1v1.4h-1.1v0.5h1.8l-0.3 1.4h-2.7zm0.2 9.7 1.2 0.4c0.3 0.1 0.4 0.4 0.2 0.7l-0.5 0.8c3.1-0.5 3.6 2.4 3.6 2.4-1.5-1.2-4.6 0.9-5.6 1.6-0.2 0.1-0.4 0.2-0.7 0.1l-5.5-1.6-0.6 2.1s-0.6 0.2-0.9-0.3c-0.3-0.4 0.9-5.1 0.9-5.1l-0.2-0.6c-0.1-0.3 0.1-0.5 0.4-0.6l6.8-1c0.2 0 0.4 0.1 0.5 0.3zm-3.9-9.7h3l0.1 1.2h-1v3.7h-1.3v-3.7h-1zm-2.1 0h1.3v4.9h-1.3zm-4.7 0h0.6l1.8 2.2v-2.2h1.3v4.9h-0.6l-1.8-2.1v2.1h-1.3zm-4.3 0h1.3v3c0 0.3 0 0.5 0.1 0.6s0.2 0.2 0.3 0.2 0.2-0.1 0.3-0.2 0.1-0.3 0.1-0.6v-3h1.3v3c0 0.5 0 0.8-0.1 1l-0.3 0.6c-0.1 0.1-0.3 0.3-0.5 0.3-0.2 0.1-0.5 0.1-0.7 0.1-0.3 0-0.5 0-0.7-0.1s-0.4-0.2-0.5-0.3c-0.2-0.2-0.3-0.4-0.3-0.6-0.1-0.2-0.1-0.6-0.1-1v-3zm-4.1 36.7-1 0.2s-7.2 1.4-12.7-4.1c-1.1-1.1-3.1-3.3-4-6.5-1-3.2-0.5-6.2 0.7-10.5 2.2-7.3 7.7-21.3 12.1-20.5 0.9 0.2 2.3 0.8 2.1 1.8-1 4.5-2.7 13.7-0.5 16.6 3 3.9 2 7.6-0.7 8.2-2.8 0.7-2.3 6.6 4 7.5zm23.1 26.2h-17.2s-3 0.5-3.1-3.2c-0.1-3.6-0.3-32.3-0.3-32.3h-2.4v-2.3h10.1v2.3h-2.5l0.1 30.1h13.2l-0.1-30.1h-2.4v-2.4h10.1v2.3h-2.6l0.2 31.3c0.2 0.1 0.9 4.3-3.1 4.3zm23.4-36.6c-0.3 1.1-1.4 3.9-4 6.5-5.5 5.5-12.7 4.1-12.7 4.1l-1-0.2-0.1-7.3c6.3-0.9 6.8-6.8 4-7.5s-3.8-4.3-0.7-8.2c2.3-2.9 0.6-12.1-0.5-16.6-0.2-1 1.1-1.6 2.1-1.8 4.3-0.8 10.1 11.7 12.5 20.5 1.2 4.5 1.4 7.5 0.4 10.5zm109.1 234-14.8-1v-223.9h14.8zm32.1 2.2-14.2-1v-224.3h14.2zm16 1.1v-227h15.4v228.1z"/>
			<polygon class="st3" points="432.7 287.8 432.7 288 435.4 288"/>
			<polygon class="st3" points="435.4 288 436.2 288 436.2 287.5"/>
			<polygon class="st3" points="432.7 35.8 434.8 35.8"/>
			<polygon class="st3" points="436.2 36.2 436.2 35.8 434.8 35.8"/>
		</g>
	</g>
</g><g class="st0" display="none">
	<g class="st1" display="inline">
		<path class="st2" d="m117.1 289.6v-7.2h14.6v-14.6h3.8l7.4 8.8 6-0.2v-3.1l8.9-5.5h2.6v3.1l3.1 5.5 14.3 0.2-1 13.9h17.9v3.6s10.5 1.4 15.5 2.2c5 0.7 13.6 5.5 11.5 10.8-2.2 5.3-18.4 8.8-24.9 10s-59.6 2.9-59.6 2.9-44.7-2.2-52.4-7.9c-7.1-5.3-16.2-7.6 4.1-17 15.7-7.1 28.2-5.5 28.2-5.5z" fill="#020000"/>
		<g fill="#0a0909">
			<path class="st4" d="m223.6 3.2c-1.1 0.6-2.1 1.2-3.1 1.8-1.5 1.4-3 2.8-4.6 4l-115.6 130.4c-0.3 0.5-0.7 0.9-1 1.4-1.2 1.5-2.6 2.9-3.9 4.4-0.8 1.2-1.7 2.3-2.5 3.5-0.9 1.4-1.8 2.8-2.7 4.2-0.2 0.4-0.5 0.8-0.7 1.2l-0.1 0.1c-0.3 0.5-0.6 1-0.9 1.5-1.3 2.9-2.5 5.8-3.5 8.8-0.1 0.4-0.1 0.8-0.2 1.2s-0.1 0.8-0.2 1.3c-0.1 0.8-0.1 1.7-0.2 2.5v58.5c0.2 2 0.4 4 0.6 6.1 0.2 1.1 0.5 2.2 0.7 3.3 0.1 0.4 0.2 0.8 0.3 1.1 0.2 0.6 0.5 1.2 0.7 1.8 0.4 0.5 0.8 1.1 1.3 1.7 1 1.1 2.1 2.1 3.2 2.9l6 0.9 132.7 4.1v-248.9c-2.3 0.5-4.3 1.2-6.3 2.2zm-130.1 211.6-5.4 0.4v-8.7l5.4-1.9zm0-20.5-5.4 2.2v-9.7l5.4-3.5zm0-24.8-5.4 3.7v-8.3l5.4-5.6zm78.4-85.8 47.4-46.9v46.9l-47.4 32.4zm-72.5 69.8 14.3-14v16.1l-14.3 9.9zm0.4 60.9-0.5-11.8 14.2-5 0.3 15.8zm-0.4-22.6v-12.3l14.3-9.2 0.2 15.5zm39.4 20-19.6 1.3v-17.5l19.6-6.8zm0-36.4-19.6 8.2v-16.8l19.6-12.6zm0-36.8-19.6 13.4v-17.8l19.6-19.2zm26.4 71.4-21.2 1.4v-24.4l21.2-7.4zm0-45.6-21.2 8.8v-22.3l21.2-13.7zm0-43.8l-21.2 14.4v-25.1l21.2-20.7zm54 85.9-47.4 3.1v-32.4l47.4-16.6zm-47.4-44.9v-28.7l47.4-27.7v36.6z"/>
			<path class="st4" d="m258.4 211.6v51.8c1.6 6.4 5 8.8 12.2 9.5 0.5 0 1.2 0.1 2.1 0.2 1.1-0.2 2.2-0.4 3.4-0.5l16.3-5.8v-58.3 3.1z"/>
			<polygon class="st4" points="353.6 253.5 353.6 218.6 295.3 218.6 295.3 260.7 300.8 260.7 300.8 243.9 345.5 243.9 345.5 253.5"/>
			<path class="st4" d="m420.1 205.4c-4.8-1.3-69.4-4.5-69.4-4.5v3.1h-55.8v11.8l58.7 0.4v2.5h10v42.1h6.2v-41.6l7.2-0.5s-1.9-3.8 15.3-7c17.2-3.1 29.7 3.1 29.7 3.1v39.7h7.7v-37.5c0.4 0.7 1.4 0.7 4.3-2.2 5.7-5.8-9.1-8.2-13.9-9.4z"/>
			<path class="st4" d="m342.5 22.4c-7.1-4.8-17.1-5.1-25.3-7.4l-73.6-15c-4.4-0.1-8.8-0.1-13.1 0.8h2.1v249.1h-2.2l24.6 0.8v-42.1h37.3v-7.7h58.4l-1.3-165.7c-1.2-5-2.4-9.8-6.9-12.8zm-90.5 162.8h-6v-26.2l6 0.3zm0-64.7-6-0.4v-26.6l6 0.5zm0-60.9-6-0.7v-26.1l6 0.8zm71.4-15.9 6 0.8v24.6l-6-0.7zm-10-1.2 6 0.8v24.7l-6-0.6zm-9.9-1.6 6 0.8v24.9l-6-0.7zm-27.1-4.1 6 1 0.1 25.4-6.1-0.7zm-10.3 58.3 6 0.5v26.3l-6-0.4zm-3.4 90.1h-5.8v-25.8l6 0.1zm0.1-64-6-0.4v-26.4l6 0.5zm0-60.2-6-0.7v-25.9l6 0.7zm9.3 123.9h-6.1l0.1-25.6 6 0.3zm0.2-122.8-6-0.9v-25.7l6 1zm2.9 33.7 6 0.5v26.2l-6-0.4zm0.8 89.3 0.1-25.2 6 0.1 0.4 25h-6.5zm10-88.5 6 0.5v26.2l-6-0.4zm6.4 88.2-5.9 0.2-0.1-25.2 6 0.4zm0.1-120.2-6-0.7v-25.4l6 0.8zm8.3 120.3h-5.8l0.1-24.9 5.7 0.3zm0.1-61.2-6-0.4v-26l6 0.5zm0-58-6-0.8v-25.2l6 0.8zm2.6 32.3 6 0.5v25.9l-6-0.4zm7.3 86.7h-5.8l0.1-24.5 5.7 0.1zm2.6-85.8 6 0.5v25.8l-6-0.4zm7.3 86h-5.8l0.1-24.3 5.7 0.1zm2.5-85.4 6 0.5v25.7l-6-0.4zm6.1 85.4h-5.8l0.1-24.3 5.7 0.4zm2.7-139.9l6 0.8v24.4l-6-0.7zm6.2 140.2h-6v-24h6zm-6-59.3v-25.7l5.9 0.5 0.1 25.6z"/>
			<path class="st4" d="m229.8 0.8v0.2c0.3-0.1 0.5-0.1 0.8-0.2z"/>
			<polygon class="st4" points="230.5 249.9 229.8 249.9"/>
		</g>
	</g>
</g>
	<g fill="#0a0909">
		<path class="st4" d="m127.1 158.3s9.5-28.4 34-37.2c0 0 15.1-7.3 22.1 9.3 0 0 16.4 6.1 23.3 0l0.6 135.1h9.5v-178.6c0.1 0-99.6-3-89.5 71.4z"/>
		<polygon class="st4" points="219.8 240.6 238.3 242.6 238.4 237.5 219.8 235.4"/>
		<path class="st4" d="m464.7 48.7c-1.2-0.1-2.5-0.1-3.7-0.1l-1.9 0.1c-0.8 0-1.7 0.1-2.5 0.1l-446.9 13.2c-0.8 0.3-1.6 0.5-2.3 0.9-4 1.8-5.7 3.7-7 6.9-0.1 0.8-0.2 1.6-0.3 2.3v135.1c0.1 0.7 0.2 1.5 0.2 2.2 1.3 4.5 3.5 8 7.3 8.5l1.2 0.1c0.9 0 1.8 0.1 2.6 0.3l129.8 13.7 65.1 7.1v-5.2l-65-7.2v-62.6h64.7l-0.1-13.3-62.7-0.6v-14.8c-4.6 4.7-8.2 9.8-10.7 14.2v5.3h-2.8c-1.7 3.5-2.5 5.9-2.5 6l-3.4-0.3c-0.3-1.9-0.4-3.8-0.6-5.6h-14.9v-37h23.7c1.2-1.8 2.5-3.5 4-5.2 2.2-2.5 4.6-4.8 7.1-6.9v-0.3h0.3c24.9-20 64.6-21.1 73-21.1h1.7l1.7 0.1v21h18.8v45.4l-18.8-0.2v13.2h18.8l-0.3 78.5 219.8 22.8c0.6 0 1.2 0.1 1.8 0.1 2.5-0.2 5.1-0.5 7.6-1h-2.9v-215.7zm-428.4 71.2h21.7v35h-21.7zm-12.3 68.6h-17v-29.3h17zm0-37.4h-17v-29.3h17zm0-42.2h-17v-34.4h17zm35.3 88.1h-24.3v-36.9h24.3zm1.2-85.6h-24.2v-36.9h24.3v36.9zm34.7 86.1h-24.3v-36.9h24.3zm0-42.6h-24.3v-33.1h24.3zm0-43.5h-24.3v-36.9h24.3zm37.2 53v36.9h-24.3v-36.9zm0-53h-24.3v-36.9h24.3zm151.7 102.1h-32.2v-39.7h32.2zm0-49.1h-32.2v-44.5h32.2zm0-53h-32.2v-39.7h32.2zm57.6 108.8h-41.6v-46.3h41.6zm0-55.8h-41.6v-44.5h41.6zm0-50.6h-41.6v-44.5h41.6zm54 106.4h-41.7v-46.3h41.6v46.3zm0-55.8h-41.7v-44.5h41.6v44.5zm0-53h-41.7v-44.5h41.6v44.5zm57.7 112.5h-45.4v-47.3h45.4zm0-56.7h-45.4v-47.3h45.4zm0-54.4h-45.4v-47.3h45.4z"/>
		<path class="st4" d="m511.9 69.6c-0.5-2.7-1.1-5.3-2.5-7.2-0.2-0.3-0.4-0.5-0.5-0.7-0.3-0.2-0.7-0.5-1-0.7l-34.8-10.9c-0.2-0.1-0.4-0.1-0.6-0.2-0.3-0.1-0.7-0.2-1-0.3-0.6-0.1-1.2-0.2-1.9-0.4-0.7-0.1-1.3-0.2-2-0.3v215.6c1.8-0.4 3.6-0.8 5.3-1.3 0.1 0 0.2-0.1 0.2-0.1l1.8-0.9 33.5-24.6c0.6-0.8 1.2-1.5 1.7-2.4 1.2-2 1.5-4.2 1.8-6.7v-158.6c0.1-0.1 0.1-0.2 0-0.3z"/>
		<path class="st4" d="m467.7 49v-0.3h-3v0.1c0.6 0 1.2 0.1 1.7 0.1 0.4-0.1 0.9 0 1.3 0.1z"/>
		<path class="st4" d="m467.7 264.5s-0.1 0 0 0z"/>
	</g>
<g class="st0" display="none">
	<path class="st5" d="m91.2 36.8c-2.2-0.5-3.8 1.2-5.3 2.7-2.5 7.9-13.7 29.8-59.1 23.8 0 0-29.9 27.2-26.6 77.7 0 0 25.9-41.9 46.5-27.2s27.2 17.5 37.9 12.1v174.8c0.2 0.5 0.4 1 0.5 1.5 2.3 2.1 9.6 1.8 11.2-1.1v-262.3c-0.4-1.1-3.7-1.7-5.1-2z" display="inline" fill="#020000"/>
	<path class="st5" d="m483 316.9c-0.1-0.1-0.2-0.2-0.3-0.2-0.1-0.1-0.1-0.1-0.1-0.2-0.6-0.4-1.3-0.7-1.9-1.1l-0.1-0.1-154.4-66.8h-49.9l-194.8 69c-0.1 0.2-0.3 0.3-0.4 0.5 0 0.2-0.1 0.4-0.1 0.6 0.1 0.3 0.2 0.6 0.3 1l0.2 0.2 0.3 0.3h400.8c1-0.2 1.3-0.7 1.1-1.9-0.3-0.5-0.5-0.9-0.7-1.3z" display="inline" fill="#020000"/>
	<g class="st1" display="inline" fill="#0a0909">
		<path class="st4" d="m82.4 193.3c-10.6 22.7-16.3 42-17.6 56.8 0 1-0.1 2.1-0.1 3.1 0 1.3-0.1 2.6-0.1 3.8v21.8c0 0.7 0.1 1.4 0.1 2.2 0.1 1.2 0 2.3-0.1 3.4v7.5c0.1 0.2 0.1 0.4 0.2 0.6v0.1 0.1c0 0.2 0.1 0.4 0.1 0.5 0.2 0.6 0.5 1.1 0.8 1.7l0.4 0.4 0.6 0.6c0.3 0.2 1 0.8 1.2 0.9s0.7 0.3 1.1 0.5h13.5v-104z"/>
		<path class="st4" d="m511.8 35.6l-0.4-2.6c-0.1-1-0.3-2.1-0.6-3.2-0.5-0.8-1-1.7-1.5-2.4-1.8-1.7-3.9-2.8-6.2-3.6l-3.3-0.3c-9 0.8-17.6 4.5-25.9 7.9-0.5 0.2-1 0.4-1.4 0.5l-23.2 11.6s-35.7-25.9-77.6-39.7c-12.2-3-24.7-3.2-37.3-3.2-0.9 0.1-1.7 0.2-2.6 0.3-60.4 9.5-164.6 63.8-204.1 117.7-11.4 15.6-21.2 30.5-29.4 44.6v134.1h3.5c0.4-0.1 0.8-0.2 1.3-0.3l16.1-7.7c0.5-0.5 0.9-1.1 1.2-1.8-0.3-7-1.3-43.8 10.7-77.9 13.3-37.9 45.4-80.5 54.5-93 13-17.9 73.1-69.1 118.9-79.1-25.7 11.4-59.5 30.6-91.5 62.7-16.1 16.2-56.6 57.9-74 125.3-6 23.3-7.7 43.5-8 57.7 0.1 0.5 0.2 1.1 0.3 1.7 0.5 0.5 1 0.8 1.6 1h0.9l14.2-3.8c0.2-0.1 0.3-0.3 0.5-0.5-0.4-21.7 1.9-54.8 16.6-91.3 21.9-54.6 58.9-85.8 78.7-102 29.4-24.3 59.2-39.1 83.3-48.2 0 0-73.8 39.9-101 72.4-27.2 32.6-45.2 51.8-59.1 105.7-11.1 42.8-9.6 55.8-8.5 59.3 0.5 0.5 1.2 0.7 1.9 0.7l15.9-5.8c0.1-0.1 0.2-0.2 0.3-0.2l0.4-0.4c-0.8-22.2 1.5-53 15-86 20.2-49.4 54.5-77.3 74.7-93.3 28.4-22.5 56.2-35.4 76.3-42.9-0.5 0.4-68.3 35.8-101 75.1-30.5 36.7-40.8 61.2-49.2 97.7 0 0-3.4 35.4-3.4 44.7 0 0.2 0.1 0.4 0.1 0.6 0.4 0.5 0.9 0.7 1.6 0.7l16.8-5.2c0.4-0.3 0.7-0.8 0.8-1.4-1-21.4 1-51.8 15.5-83.6 11.8-25.8 27.5-43.3 37.8-54.6 5.3-5.9 18.5-19.8 38.3-34.6 20.8-15.5 40.8-25.8 57.4-32.8 0 0-48.5 29.2-65.1 45.9-16.6 16.6-40.5 41.2-55.8 73.1-14.2 29.6-20.1 68.2-19.1 82 0.1 0.3 0.2 0.7 0.3 1 0.2 0.2 0.3 0.3 0.4 0.5 0.4 0.2 0.8 0.3 1.2 0.4h0.5l21-8.6 0.6-0.6c0.1-0.2 0.1-0.5 0.2-0.8 0.6-31.4 8.2-55.4 14-69.9 17.3-42.7 45.5-68 60.1-80.7 15.8-13.8 30.4-22.8 38.3-27.3 11-6.3 22-12.6 37.8-17.3 25-7.5 52.5-8.2 52.5-8.2l-96.5 48.9-2.4 1.5c-2.6 2.6-4.4 5.6-4.8 9.5v138.1l156.2 68.1c0.3 0 0.5 0.2 0.7 0.3l5.3 2.3c0.2 0 0.5 0.1 0.7 0.1 0.8 0.2 1.6 0.5 2.5 0.6 1.8-0.4 3.5-0.9 4.9-2 0.1-0.1 0.1-0.2 0.2-0.4l0.3-0.6c0.4-158.2 0.4-274.3 0.1-276.5zm-132.2 186.6h-31.2v-27.2h9.3v19.3h21.9zm0-44.5h-31.2v-27.2h9.3v19.3h21.9zm0-42.5h-31.2v-27.2h9.3v19.3h21.9zm5.3 18.3h8.5v24.2h31.9v8h-40.4zm40.6 88.5h-40.4v-32.1h8.5v24.1h31.9zm0-111.2h-40.4v-32.1h8.5v24.2h31.9zm63.8 137.1h-56.6v-42.9h12.3v31.1h44.4v11.8zm0-70h-56.6v-44.4h12.3v32.1h44.4v12.3zm0-71.5h-56.6v-44.4h12.3v32.1h44.4v12.3z"/>
	</g>
</g><g class="st0" display="none">
	<path class="st5" d="m512 305.1c-0.1 0.3-0.2 0.7-0.3 1.1 0 0.1 0 0.1-0.1 0.2-1.2 2.1-3.4 3.4-5.6 4.6h-102.8c-3.8-0.9-6.9-2.7-7-6.2 0-0.5-0.1-1-0.3-1.4l-1-50h-73.4v50.1c-0.1 0.7-0.2 1.5-0.3 2.2-1.1 2.7-2.8 4.9-5.7 5.3h-287.5c-12.5-1-21-14.3-26.3-24.2-0.2-0.4-0.4-0.9-0.7-1.3-0.2-0.9-0.4-1.8-0.7-2.6l-0.3-1.8v-105.1c0.1-1.6 0.2-3.2 0.4-4.8l48.3-130.1c2.1-3.3 4.7-5.7 7.6-7.6 0.7-0.2 1.4-0.4 2.2-0.7l123.5-23c1.3-0.1 2.6-0.2 3.9-0.4l65.1 14.5c0.5 0.3 1 0.6 1.6 0.8 1.4 1.2 2.5 2.8 3.2 5v11.9l59.2 120v72.4h180.1c0.8 0.1 1.6 0.2 2.3 0.3 2.9 1.4 5 3.3 5.7 6l8.9 62.7c-0.1 0.7 0 1.4 0 2.1zm-503.1-66.6 26.3-27.8h221.8l40.9 24.3v-21.8l-40.9-33.9h-216.3l-31.8 49zm0-42.5v13.2l31.8-57.2s162.7-18.7 216.2 0l37.8 43.5v-17.2l-40.5-59.7s-67.8-16.2-140.2-6.1-68.3 10.6-68.3 10.6zm3.5-21.8 36.4-85.5 129-18.2v-32.9l-126.4 24.3-39 102.6zm246.1-105.2v27.7l34.4 52.3v-17.5zm-25.2 2.1s7.7 1.5 13.6-4.3c2.8-2.8 3.9-5.8 4.3-6.9 1-3.2 0.8-6.4-0.5-11.2-2.5-9.4-8.7-22.8-13.3-21.9-1 0.2-2.4 0.9-2.2 1.9 1.1 4.8 2.9 14.6 0.5 17.7-3.2 4.2-2.2 8.1 0.8 8.8s2.5 7-4.3 8l0.1 7.8zm-31.8-0.2 0.1-7.8c-6.8-1-7.2-7.3-4.3-8s4-4.6 0.8-8.8c-2.4-3.1-0.6-12.9 0.5-17.7 0.2-1-1.2-1.7-2.2-1.9-4.7-0.9-10.6 14.1-12.9 21.9-1.4 4.6-1.8 7.8-0.8 11.2s3.1 5.7 4.3 6.9c5.9 5.8 13.6 4.3 13.6 4.3zm18.2-15.6h7v-3.9h-19.7v4h7.3v22.6h5.4v-22.7zm-18.1 5.7h2.5s0.2 30.6 0.3 34.5 3.3 3.4 3.3 3.4h18.4c4.3 0 3.5-4.5 3.5-4.5l-0.1-33.4h2.8v-2.5h-10.8v2.5h2.5l0.1 32.1h-14.1l-0.2-32.1h2.7v-2.5h-10.8v2.5zm6.4-26c0 0.3 0 0.5-0.1 0.6s-0.2 0.2-0.3 0.2-0.3-0.1-0.3-0.2c-0.1-0.1-0.1-0.3-0.1-0.6v-3.2h-1.4v3.2c0 0.5 0 0.9 0.1 1.1 0.1 0.3 0.2 0.5 0.4 0.6 0.1 0.2 0.3 0.3 0.6 0.4 0.2 0.1 0.5 0.1 0.8 0.1s0.5 0 0.8-0.1c0.2-0.1 0.4-0.2 0.6-0.4s0.3-0.4 0.4-0.6 0.1-0.6 0.1-1.1v-3.2h-1.6zm2.5 2h1.4v-2.3l1.9 2.3h0.6v-5.3h-1.4v2.3l-2-2.3h-0.6v5.3zm6.3 0v-5.3h-1.4v5.3zm3.2-3.9h1.1l-0.1-1.3h-3.2l-0.1 1.3h1.1v3.9h1.4v-3.9zm4.9 2.5h-1.9v-0.5h1.2v-1.4h-1.2v-0.5h1.8l-0.2-1.4h-2.9v5.2h2.9zm4.1-0.2c-0.1 0.1-0.3 0.1-0.4 0.2-0.1 0-0.3 0.1-0.4 0.1-0.4 0-0.7-0.1-1-0.4-0.3-0.2-0.4-0.5-0.4-0.9s0.1-0.7 0.4-0.9 0.6-0.4 1-0.4h0.4c0.1 0 0.2 0.1 0.4 0.1l-0.1-1.6c-0.1 0-0.2 0-0.3-0.1h-0.3c-0.8 0-1.5 0.3-2 0.8s-0.8 1.2-0.8 2 0.3 1.4 0.8 1.9 1.2 0.7 2 0.7h0.4c0.1 0 0.2 0 0.3-0.1zm-15.6 13.7 0.6-2.2 5.9 1.7c0.2 0.1 0.5 0 0.7-0.1 1-0.8 4.4-3 6-1.7 0 0-0.6-3-3.9-2.5l0.5-0.9c0.2-0.3 0-0.6-0.3-0.7l-1.2-0.4-0.4-0.7c-0.1-0.2-0.3-0.3-0.6-0.3l-7.3 1c-0.3 0-0.5 0.3-0.4 0.6l0.2 0.6s-1.2 5-0.9 5.4c0.5 0.3 1.1 0.2 1.1 0.2z" display="inline" fill="#020000"/>
</g><g class="st0" display="none">
	<g class="st1" display="inline" fill="#020000">
		<path class="st2" d="m512 64c0-0.4-0.1-0.8-0.1-1.1-0.6-2-1.4-3.9-2.6-5.7-2.6-4-7-6.2-10.7-9.2-4.1-2.5-7.5-4.5-7.5-4.5-23.8-13.3-40.7-18.2-68.1-25.4-10-2.6-23.8-5.2-37.2-7.5-2.3-0.1-4.6-0.5-6.8-0.9-0.2 0-0.5 0-0.7-0.1-0.3-0.1-0.7-0.1-1-0.2-1.1-0.1-2.2-0.2-3.2-0.3-0.4 0-0.9 0.1-1.3 0.1-11.9-0.4-30.1 1.6-32.7 16v9.8l-21.3 11.7-27-15.1c-3.5-1.2-6.8-2.8-10.4-3.3v280.5l37.4-4.6 21.3 4.6 152.7 4h0.7l3.2 0.1h0.6c6.8-0.6 14.4-2 14.6-10.2v-0.2c0-2.3 0.1-4.7 0.3-7zm-172.1 236-21.3-4.3v-229.2l21.5-11.1z"/>
		<path class="st2" d="m276.8 28.3h-0.5c-4.1 0.6-7.5 2.1-10.9 4.1l-252.1 170.1c-0.5 0.4-0.9 0.8-1.4 1.1-3.4 2.7-7.2 5.7-9.7 9.3l5.8-3.4v9.6l-6.5 3.2v-8.2c-0.6 1-1.1 2.1-1.4 3.2l-0.1 56.4c1.6 5.3 4.6 9.7 11.1 10.8 0.6 0.1 1.1 0.3 1.5 0.5l39.2 4.5 22.1 4.1v-4.9l-9.9-1.6 0.2-112.6 7.4-3.7 3 1-0.8 121.8 201.2 15.6h1.7v-280.9zm-269.3 246.7l-6-0.4v-9.3h6zm0-19.2-6 0.6v-8.4l6-1.3zm0.5-18.3-6.5 2.5v-9.1l6.5-2.8zm1.1-28.6s7.4-4.4 7.2-4.4c-0.3 0 0 10.4 0 10.4l-7.2 3.7zm0 18.7 7.2-3v10.4l-7.2 2.1zm0 18.9 7.2-1.6v10.1l-7.2 0.7zm7.7 28.9-8.2-0.4v-9.7l8.2-0.4zm10 0.9-8.9-0.6v-11l8.9-0.3zm0-22.5-8.9 1.1v-10.4l8.9-1.8zm0-22-8.9 2.9v-10.7l8.9-3.8zm0-22.2s-9 5-8.9 4.7 0-10.8 0-10.8c0.9-0.4 8.9-5.6 8.9-5.6zm11.9 67.2-10-0.5v-11.9l10-0.3zm0-24.9-9.3 1v-10.9l9.3-2.1zm0-23.8s-10.4 2.8-10.3 2.7c0.2 0 0-11.1 0-11.1l10.3-4.5zm0.5-24.6-10.8 5.4v-11.6l10.8-6.7zm11.6 74.4-10.2-0.4v-13.4h10.2zm0.2-27.5-9.9 1.1v-12.3l9.9-2zm0-26.4-9.9 3.1v-12l9.9-4.9zm0-26.8-9.9 5.1v-12.4c0.3-0.3 9.9-6 9.9-6zm0.8 87.9v-102.5l8.1-3.7v107.5l4.1 0.7zm48.6-41.1-23.6 3.4v-16.4l23.6-4.9zm0-35.2-23.6 7.1v-16.5l23.6-9.4zm0-35.8-23.6 11.7v-16l23.6-15.5zm34.6 66.6-31.5 4.4v-19l31.5-7.1zm0-42.4-31.5 10.4v-19.4l31.5-13.3zm0.9-41.8-32.4 16v-19.3l32.4-20.2zm50.8 131-47.6-3.6v-23.1l47.6-0.9zm0-52.2-47.6 5.4v-22.7l47.6-11.1zm1.1-52.9-48.7 15.1v-22.2l48.7-20.9zm0-52.4c-0.7 0.2-48.7 24.3-48.7 24.3v-23.1l48.7-29.2c0-0.1 0.7 27.8 0 28zm82.4 162.2-77.4-4.3v-28.3l77.4-3.8zm0-67.6s-76.8 10.1-77.2 9.4 0-28.5 0-28.5c1.1 0.2 77.2-17.7 77.2-17.7zm0-68.7-77.2 24.8v-28.7l77.2-31.9zm-0.7-66.3-76.5 38.7v-29l77.2-47.2z"/>
	</g>
</g><g class="st0" display="none">
	<g class="st1" display="inline">
		<g fill="#040006">
			<path class="st6" d="m421.7 187.4-394.8-59.6h-1c-4.5-0.1-10-0.2-13.8 2.6-0.7 0.5-1.3 1-1.8 1.6 0 0-0.6 0.9-0.8 1.3 0 0 0 0.1-0.1 0.1-0.2 0.5-0.4 1.1-0.7 1.6l-8.7 43.6v87.6c0 0.4 0.1 0.7 0.1 1.1 0.2 0.9 0.4 1.8 0.6 2.6 2.1 5.4 5.2 11 10.8 12.9 0.1 0 0.1 0 0.2 0.1l411 0.9z"/>
			<path class="st6" d="m510.1 296.8c0.6-1.2 1.1-2.4 1.5-3.7 0.1-0.2 0.1-0.5 0.2-0.7 0.1-0.9 0.1-1.8 0.2-2.7v-263.3c-1.1-4.9-3.2-8.8-8.2-9-0.4 0-0.8-0.1-1.1-0.1l-25 1v12.4l-46.7 22.6c-1.1 1-2.3 1.9-3.4 2.9-2.1 2.5-4.3 5.4-5.5 8.1-0.9 2.1-1.1 4.5-1.3 6.8l1.6 216.2c0.8 4.3 3.1 7.9 6.8 10.4 1 0.7 2.1 1.2 3.2 1.7 2 0.6 4.1 0.9 6.1 1.2l51.6 3c3.2 0 6.3-0.3 9.3-0.7 4-0.9 7.1-2.5 9.7-4.7 0.3-0.5 0.6-0.9 1-1.4z"/>
			<polygon class="st7" points="478.7 286 470.6 285.1 470.6 33.9 477.6 18.2" stroke="#fcfafb" stroke-miterlimit="10" stroke-width="1.5"/>
			</g><polygon class="st8" points="478.7 286 477.4 34.9 470.6 46.6 470.6 285.1" fill="#fff"/>
		<g fill="#fff">
			<polygon class="st8" points="111.4 222.3 111.4 240.7 54.6 238.3 54.6 218.6"/>
			<polygon class="st8" points="166.4 225.9 166.4 243.1 114.5 240.8 114.5 222.5"/>
			<path class="st8" d="m169.1 226.1s46.7 3 46.3 3c-0.3 0 0 16 0 16l-46.3-2z"/>
			<polygon class="st8" points="364.2 238.8 364.2 251.5 335.5 250.3 335.5 237"/>
			<polygon class="st8" points="371.9 251.9 414.9 253.7 414.9 242.1 371.9 239.3"/>
			<polygon class="st8" points="332.3 237 332.3 250.2 302.6 248.9 302.6 234.8"/>
			<polygon class="st8" points="258 231.9 258 247 217.8 245.2 217.8 229.3"/>
			<polygon class="st8" points="296.7 234.4 296.7 249.1 260.8 247.3 260.8 232.1"/>
			<polygon class="st8" points="111.4 256.3 111.4 274.4 54.6 274 54.6 254.6"/>
			<path class="st8" d="m114.5 256.4 52 1.6v16.4c0 0.3-52 0-52 0z"/>
			<polygon class="st8" points="215.4 259.4 215.4 275.1 169.6 274.8 169.6 258"/>
			<polygon class="st8" points="260.7 260.8 260.7 275.4 217.8 275.1 217.8 259.5"/>
			<polygon class="st8" points="279.9 261.3 279.9 282.8 265.7 282.8 265.7 260.8"/>
			<polygon class="st8" points="298.6 261.9 298.6 282.8 284 282.8 284 261.4"/>
			<polygon class="st8" points="332.3 262.9 332.3 275.9 302.6 275.7 302.6 262"/>
			<path class="st8" d="m335.5 263 28.7 0.9v12.2l-28.7-0.2c0.1 0 0-12.9 0-12.9z"/>
			<polygon class="st8" points="414.9 265.4 414.9 276.4 371.9 276.1 371.9 264.1"/>
			<polygon class="st8" points="297.5 176.7 297.5 193.9 260.8 189.6 260.8 171.4"/>
			<polygon class="st8" points="334.3 181.9 334.3 198 301.6 194.2 301.6 177.1"/>
			<polygon class="st8" points="365.4 186.4 365.4 201.6 338.2 198.4 338.2 182.4"/>
			<polygon class="st8" points="418.1 194.2 418.1 207.8 371.9 202.5 371.9 187.5"/>
			<polygon class="st8" points="296.7 204.2 296.7 223.1 260.8 220.4 260.8 199.7"/>
			<polygon class="st8" points="334.3 208.9 334.3 225.9 301.6 223.5 301.6 204.8"/>
			<polygon class="st8" points="365.4 212.9 365.4 228.3 338.2 226.3 338.2 209.4"/>
			<polygon class="st8" points="414.9 219.1 414.9 232.1 371.9 228.8 371.9 213.7"/>
		</g>
		<g stroke="#fff" stroke-miterlimit="10">
			<polygon class="st9" points="391.4 290.2 391.4 221.1 278.9 234.6 260.2 231.9 260.2 198.8 421.4 155.9 422.2 259.1 400.4 259.1 400.4 290.2" fill="#040006" stroke-width="2"/>
			<line class="st10" x1="260.2" x2="391.2" y1="231.9" y2="215.6" fill="none"/>
			<line class="st10" x1="391.4" x2="391.2" y1="221.1" y2="215.6" fill="none"/>
		</g>
		<g fill="#fff">
			<polygon class="st8" points="277.9 198 277.9 223.3 263.5 225.8 263.5 201.4"/>
			<path class="st8" d="m281.8 197 14.1-3.4v26.9s-13.8 2.2-14.1 2.3 0-25.8 0-25.8z"/>
			<polygon class="st8" points="315 189 315 217.3 299.5 220 299.5 192.8"/>
			<path class="st8" d="m319.9 187.9 18.7-4.5v30.2s-19.2 3.2-18.7 3.1c0.4-0.1 0-28.8 0-28.8z"/>
			<path class="st8" d="m342.6 182.4 22.4-5.4v32.4s-22.3 3.6-22.4 3.6 0-30.6 0-30.6z"/>
			<polygon class="st8" points="393.8 170.1 393.8 204.6 369.8 208.6 369.8 175.8"/>
			<polygon class="st8" points="421.5 163.4 421.7 200.3 399.1 203.9 399.1 168.8"/>
			<polygon class="st8" points="421.7 208.6 422.2 245.8 399.1 246.6 399.1 213"/>
		</g>
		<line class="st11" x1="422.2" x2="422.7" y1="257.7" y2="283.8" fill="none" stroke="#fff" stroke-miterlimit="10" stroke-width="2"/>
		<line class="st12" x1="10.6" x2="11.7" y1="132" y2="282.8" fill="none" stroke="#fdfdfd" stroke-miterlimit="10" stroke-width="2"/>
	</g>
</g><g class="st0" display="none">
	<g class="st1" display="inline">
		<path class="st6" d="m511.8 169.1c-0.1-0.3-0.1-0.6-0.2-0.8-0.5-1-1.2-1.9-1.9-2.6-0.1-0.1-0.2-0.1-0.2-0.2l-0.3-0.3c-0.3-0.2-0.6-0.3-0.9-0.5l-1.8-0.9-203.7-75.3c-9.3-2.4-19-3.9-28.6-4.5-3.8-0.2-7.5-0.2-11.2-0.2l-63.5 7.8-44.9-12.4v-6.4c-0.6-1.6-1.3-2.9-2.8-3.8-0.3-0.2-0.5-0.3-0.8-0.4l-21-6.3c-1.3-0.2-2.5-0.3-3.8-0.3l-26.1 4.8-16.7-1c-0.3 0-0.5 0.1-0.8 0.2-0.7 0.5-1.3 1.2-1.6 2.2v2.2l-56.7 10.6h-0.1c-0.6 0.2-1.2 0.3-1.8 0.3-0.7 0.3-1.5 0.6-2.3 0.7-0.1 0-0.3 0.1-0.4 0.1h-0.1c-7.8 2.7-15 6.2-18.6 13.5l-0.3 1.5v145.1c0.1 0.5 0.2 0.9 0.3 1.5 0.7 7.1 7.3 11.5 14 14.3 0.5 0.1 0.9 0.2 1.4 0.3l111.6 1.9 67.5-3.3 91.7 0.5 212.4-4.3c2.7-0.4 5.4-1.1 7-3.1l0.6-0.9c0.1-0.3 0.1-0.6 0.2-0.9v-53.3h2.4c0.9-0.1 1.6-0.8 2.1-1.8v-0.2l0.1-21.9c-0.1-0.6-0.1-1.2-0.2-1.9z" fill="#040006"/>
		<g fill="#fff">
			<polygon class="st8" points="199.6 107.1 199.6 140.6 154.8 131.4 154.7 95.5"/>
			<polygon class="st8" points="199.6 147.8 199.6 178.8 154.7 172.5 154.5 140"/>
			<polygon class="st8" points="199.6 186.6 199.6 214.7 154.8 212.5 154.8 181.2"/>
			<polyline class="st8" points="287.3 96.3 317.5 106.7 317.5 129.8 287.3 121.2"/>
			<polygon class="st8" points="345.8 116.4 345.9 138 320.5 130.7 320.5 107.7"/>
			<polygon class="st8" points="371.8 125.4 371.8 145.4 348.9 138.8 348.9 117.5"/>
			<polygon class="st8" points="394 133 394 151.7 374.2 146.1 374.2 126.2"/>
			<polygon class="st8" points="413.5 139.7 413.5 157.3 396.1 152.3 396.1 133.7"/>
			<polygon class="st8" points="431.4 145.9 431.4 162.4 415.5 157.9 415.5 140.4"/>
			<polygon class="st8" points="447.2 151.3 447.2 166.9 432.9 162.9 432.9 146.4"/>
			<polygon class="st8" points="461.2 156.1 461.2 171 448.4 167.3 448.4 151.7"/>
			<polygon class="st8" points="474 160.6 474 174.6 462.5 171.3 462.5 156.6"/>
			<polygon class="st8" points="486.3 164.8 486.3 178.1 475.3 175 475.3 161"/>
			<polygon class="st8" points="496.2 168.1 496.2 181 487.1 178.4 487.1 165"/>
			<polygon class="st8" points="506.4 171.7 506.4 183.9 497.6 181.4 497.6 168.7"/>
			<polygon class="st8" points="510.8 173.2 510.8 185 507.3 184.1 507.3 172"/>
			<polyline class="st8" points="287.3 141.3 317.3 148.6 317.3 169 287.3 163.2 287.3 141"/>
			<polygon class="st8" points="347.2 155.8 347.2 174.6 320.5 169.6 320.5 149.4"/>
			<polygon class="st8" points="372.1 161.8 372.1 179.4 349.3 175 349.3 156.3"/>
			<polygon class="st8" points="394.1 167.1 394.1 183.6 374.3 179.8 374.3 162.3"/>
			<polygon class="st8" points="414 171.9 414 187.4 396.4 184 396.4 167.7"/>
			<polygon class="st8" points="431.9 176.2 431.9 190.8 415.7 187.7 415.7 172.3"/>
			<polygon class="st8" points="447.5 180 447.5 193.8 433.2 191 433.2 176.6"/>
			<polygon class="st8" points="461.7 183.4 461.7 196.5 449 194 449 180.4"/>
			<polygon class="st8" points="474.7 186.6 474.7 198.9 463.1 196.7 463.1 183.8"/>
			<polygon class="st8" points="486.4 189.4 486.4 201.2 475.7 199.1 475.7 186.8"/>
			<polygon class="st8" points="497 192 497 203.2 487.3 201.3 487.3 189.6"/>
			<polygon class="st8" points="506.4 194.2 506.4 204.8 498 203.4 498 192.2"/>
			<polygon class="st8" points="317.3 187.1 317.3 206.7 287.2 203.5 287.2 182.5"/>
			<polygon class="st8" points="347.2 191.6 347.2 209.8 320.5 207.1 320.5 187.6"/>
			<polygon class="st8" points="372.1 195.5 372.1 212.5 349.3 210.1 349.3 192"/>
			<polygon class="st8" points="394.1 198.8 394.1 214.8 374.3 212.7 374.3 195.8"/>
			<polygon class="st8" points="414 201.9 414 216.9 396.4 215 396.4 199.2"/>
			<polygon class="st8" points="431.9 204.6 431.9 218.7 415.7 217 415.7 202.1"/>
			<polygon class="st8" points="447.5 207 447.5 220.4 433.2 218.9 433.2 204.8"/>
			<polygon class="st8" points="461.7 209.2 461.7 221.9 449 220.5 449 207.2"/>
			<polygon class="st8" points="474.7 211.1 474.7 223.2 463.1 222 463.1 209.4"/>
			<polygon class="st8" points="486.4 212.9 486.4 224.5 475.7 223.3 475.7 211.3"/>
			<polygon class="st8" points="497 214.6 497 225.6 487.3 224.6 487.3 213.1"/>
			<polygon class="st8" points="506.4 216 506.4 226.6 498 225.7 498 214.7"/>
			<polyline class="st8" points="81.1 77.2 100.3 81.3 101.1 245.4 81.1 245.4 81.1 77.2"/>
			<polygon class="st8" points="283.3 257.5 283.3 222.3 199.6 222.3 199.6 257.6"/>
		</g>
		<g fill="none" stroke-miterlimit="10" stroke-width="2"><g stroke="#fff">
			<line class="st11" x1="127.9" x2="127.9" y1="62" y2="260.3"/>
			<line class="st11" x1="199.6" x2="200" y1="91.6" y2="258"/>
			<line class="st11" x1="154.6" x2="154.9" y1="79.2" y2="259"/>
			<line class="st11" x1="283.3" x2="283.3" y1="84.8" y2="258"/>
			</g><line class="st12" x1="81.1" x2="81.1" y1="70.4" y2="259.5" stroke="#fdfdfd"/>
			<line class="st12" x1="100.1" x2="101.2" y1="66.8" y2="259.9" stroke="#fdfdfd"/>
			<line class="st13" x1="199.6" x2="283.3" y1="257.6" y2="257.5" stroke="#040006"/>
		</g>
	</g>
</g><g class="st0" display="none">
	<g class="st1" display="inline">
		<path d="m462.1 82.8v99.4c0 0.3 0 0.6-0.1 0.9-0.2 2.1-0.5 4.8-2.1 6.3-1 1-2.3 1.6-3.6 2.2l-315.4 76.4c-1.2 0.1-2.4 0.2-3.5 0.3v-266.9c1.9 0.2 3.9 0.4 5.8 0.8h0.3l314.4 73.6c0.3 0.1 0.6 0.2 0.9 0.4 0 0 0.2 0.1 0.3 0.2 0.2 0.2 0.5 0.3 0.7 0.4l0.1 0.1c1.3 1.5 2 3.5 2.2 5.9zm-327.2-81.6c-1.3 0-2.6 0.1-3.8 0.1l-57.5 13.4-17.8-6.7s-16.9 1.9-26.3 4.9c-3.2 1.8-5.4 3.9-6.5 7.2v231.6c0 0.2 0 0.4 0.1 0.6 0.7 2.1 2.6 3.5 5.1 4.5 3.6 1.5 7.5 1.2 11.3 1.9l15.6 1.6 18.6-1.5 29.8 6.5h0.8c1.9 0.2 3.7 0.4 5.6 0.7l23.1 2.4c1.5 0 3 0 4.4-0.1v-266.9c-0.9-0.1-1.7-0.1-2.5-0.2zm20.4 76.2 73.1 6.5v-45.5l-73.1-15.7zm78 7 55.6 5v-38l-55.6-11.9zm60.6 5 39.4 4v-32.4l-39.4-8.5zm43.1 4.3 30.9 2.8v-28l-30.9-6.7zm34.6 3.1 25.8 2.3v-24.4l-25.8-5.5zm28.8 2.5 18.7 1.7v-21.6l-18.7-4zm21 1.9 16 1.4v-19.3l-16-3.4zm18.1 1.4 12.4 1.3v-17.4l-12.4-2.1zm-284.2 40.3 73.1-2.6v-46.3l-73.1-5.7zm78-2.7 55.6-2v-39.5l-55.6-4.4zm60.6-2.2 39.4-1.4v-34.4l-39.4-3.1zm43.1-1.5 30.9-1.1v-30.5l-30.9-2.3zm34.6-1.2 25.8-0.9v-27.1l-25.8-2zm28.8-1 18.7-0.7v-24.6l-18.7-1.5zm21-0.8 16-0.6v-22.6l-16-1.3zm18.1-0.6 12.4-0.4v-20.9l-12.4-1zm-284.2 81 73.3-12.3v-49.5l-73.3 4.6zm78.2-13.1 55.6-9.3v-43.2l-55.6 3.5zm60.6-10.1 39.4-6.6v-38.6l-39.4 2.5zm43.1-7.2 30.9-5.2v-35l-30.9 1.9zm34.6-5.8 25.8-4.3v-31.9l-25.8 1.9zm28.6-4.8 18.9-3.2v-29.6l-18.7 1.4zm21.2-3.6 16-2.7v-27.7l-16 1.2zm18-3 12.2-2v-26.3l-12.2 0.9z"/>
		<g stroke-miterlimit="10" stroke-width="2">
			<line class="st11" x1="137.3" x2="137.3" y1="1.4" y2="268.4" fill="none" stroke="#fff"/>
			<polygon class="st14" points="54.9 260.4 55.7 22.7 73.6 30.1 73.6 258.9" fill="#fff" stroke="#fdfdfd"/><g fill="none">
			<line class="st13" x1="54.9" x2="73.6" y1="260.4" y2="258.9" stroke="#040006"/>
			<line class="st12" x1="55.8" x2="55.7" y1="8" y2="22.7" stroke="#fdfdfd"/>
			<line class="st12" x1="73.6" x2="73.6" y1="14.7" y2="30.1" stroke="#fdfdfd"/>
		</g></g>
		<g fill="#040006">
			<path class="st6" d="m177.9 286.6 70.2-21.7 70 24.4-57.7 30.7zm75.9 20.9 37.8-20.2-44.3-14.9-43.7 14.9z"/>
			<path class="st6" d="m277 253.4 44.7-13.9 63.1 13.9-38.1 20.3zm64.2 10 19.5-9.3-32.7-7.9-21.7 7.2z"/>
			<path class="st6" d="m357 228.6 39.4-12.2 46.4 6.1-32 17zm51 2.9 15.6-7.9-23.6-3.3-18.3 6.4z"/>
			<path class="st6" d="m462.6 195.9 30.2 3-30.2 13.1-36.5-4.5m38.2 0 15.4-7.1-17-1.7-19.9 6.4z"/>
		</g>
	</g>
</g></g></svg>
