<?xml version="1.0" encoding="UTF-8"?>
<!-- Generator: Adobe Illustrator 21.1.0, SVG Export Plug-In . SVG Version: 6.00 Build 0)  -->
<svg width="64" height="46.093" version="1.1" viewBox="0 0 64 46.092998" xml:space="preserve" xmlns="http://www.w3.org/2000/svg" xmlns:cc="http://creativecommons.org/ns#" xmlns:dc="http://purl.org/dc/elements/1.1/" xmlns:rdf="http://www.w3.org/1999/02/22-rdf-syntax-ns#"><metadata><rdf:RDF><cc:Work rdf:about=""><dc:format>image/svg+xml</dc:format><dc:type rdf:resource="http://purl.org/dc/dcmitype/StillImage"/><dc:title/></cc:Work></rdf:RDF></metadata>
<style type="text/css">
	.st0{display:none;}
	.st1{display:inline;}
	.st2{fill:#020000;}
	.st3{fill:#0F0E0F;}
	.st4{fill:#0A0909;}
	.st5{display:inline;fill:#020000;}
	.st6{fill:#040006;}
	.st7{fill:#040006;stroke:#FCFAFB;stroke-width:1.5;stroke-miterlimit:10;}
	.st8{fill:#FFFFFF;}
	.st9{fill:#040006;stroke:#FFFFFF;stroke-width:2;stroke-miterlimit:10;}
	.st10{fill:none;stroke:#FFFFFF;stroke-miterlimit:10;}
	.st11{fill:none;stroke:#FFFFFF;stroke-width:2;stroke-miterlimit:10;}
	.st12{fill:none;stroke:#FDFDFD;stroke-width:2;stroke-miterlimit:10;}
</style>
<g class="st0" transform="translate(-21.7 -273.91)" display="none">
	<g class="st1" display="inline"><g fill="#020000">
		<polygon class="st2" points="128.7 293.1 141.1 283.2 291.9 295.9 281.7 306.5"/>
		<path class="st2" d="m272.6 317.2 6-6-152.3-14-7.7 7.1c0.1 0.3 0.2 0.7 0.3 1 0.1 0.1 0.2 0.3 0.3 0.5l0.3 0.3c0.2 0.2 0.3 0.4 0.5 0.6 0.8 0.5 1.6 1 2.5 1.4l135.5 11.6h0.6c3.4 0 7.3-0.2 11-0.8 1-0.6 2-1.1 3-1.7z"/>
		<polygon class="st2" points="145.2 279.7 154.7 270.4 304.9 283.4 296.3 292.7"/>
		</g><g fill="#0f0e0f">
			<path class="st3" d="m475.5 52.7c-0.2-0.3-0.3-0.6-0.5-0.9-1.1-1-2-2.1-3-3.1-0.2-0.2-1.9-1.7-3.1-2.7l-32.7-9.8v251.3l35.7-20.2c3.2-3.5 5-7.6 6-12v-192.8c-0.1-3.4-1.1-6.7-2.4-9.8z"/>
			<path class="st3" d="m326.9 37v-12.2c-0.2-0.6-0.4-1.2-0.5-1.8-0.1-0.7-0.3-1.3-0.5-2-0.4-0.6-0.8-1.2-1.1-1.8-0.4-0.4-1.5-1.7-1.8-2-1.1-1.1-2.2-2-3.3-3-0.3-0.2-0.5-0.4-0.6-0.6-0.2-0.1-0.5-0.3-0.9-0.6-0.3-0.2-0.5-0.3-0.8-0.5l-33-12.5-119.2 5.8c-1.3 1.1-2.6 2.3-3.6 3.5-2.4 2.9-3.3 6.6-4.2 10.5v25.8l-112.6 2.8c-5.1 2.3-9 5.6-10.8 10.1v186.1c0 0.1 0.1 0.1 0.1 0.2 0.3 0.7 0.4 1.5 0.5 2.3 0.3 1 0.7 2 1.1 2.9 0 0 0.6 1.1 1.1 2.2 0.8 0.9 1.7 1.8 2.6 2.7h0.1c0.5 0.2 0.9 0.5 1.3 0.7l1.2 0.3 9.9 0.9 48.7 4.3 4.3 0.4 30.2 2.7 191.8 16.2 14.8 1 17.9 1.3 45.6 3.2 27.4 1.9v-252zm-260.8 215.2-14.2-1.2v-187.5h14.2zm34.5 2.9-14.8-1.2v-193.5h14.8zm34.5 2.9-17.6-1.5 1-196.7h16.6zm74.2-241.5c0.5-0.5 1.1-0.7 1.9-0.7h0.3c0.1 0 0.2 0 0.3 0.1l0.1 1.5c-0.1-0.1-0.2-0.1-0.3-0.1h-0.3c-0.4 0-0.7 0.1-0.9 0.3s-0.4 0.5-0.4 0.8 0.1 0.6 0.4 0.8c0.2 0.2 0.5 0.3 0.9 0.3 0.1 0 0.3 0 0.4-0.1 0.1 0 0.3-0.1 0.4-0.1l-0.1 1.5c-0.1 0-0.2 0.1-0.3 0.1h-0.4c-0.8 0-1.4-0.2-1.9-0.7s-0.7-1.1-0.7-1.8c-0.2-0.8 0.1-1.4 0.6-1.9zm-18 21.5v-3.8h18.5v3.7h-6.5v21.2h-5.1v-21.2c-2.4 0.1-4.7 0.1-6.9 0.1zm13.7-22.2h2.7l0.2 1.3h-1.7v0.5h1.1v1.4h-1.1v0.5h1.8l-0.3 1.4h-2.7zm0.2 9.7 1.2 0.4c0.3 0.1 0.4 0.4 0.2 0.7l-0.5 0.8c3.1-0.5 3.6 2.4 3.6 2.4-1.5-1.2-4.6 0.9-5.6 1.6-0.2 0.1-0.4 0.2-0.7 0.1l-5.5-1.6-0.6 2.1s-0.6 0.2-0.9-0.3c-0.3-0.4 0.9-5.1 0.9-5.1l-0.2-0.6c-0.1-0.3 0.1-0.5 0.4-0.6l6.8-1c0.2 0 0.4 0.1 0.5 0.3zm-3.9-9.7h3l0.1 1.2h-1v3.7h-1.3v-3.7h-1zm-2.1 0h1.3v4.9h-1.3zm-4.7 0h0.6l1.8 2.2v-2.2h1.3v4.9h-0.6l-1.8-2.1v2.1h-1.3zm-4.3 0h1.3v3c0 0.3 0 0.5 0.1 0.6s0.2 0.2 0.3 0.2 0.2-0.1 0.3-0.2 0.1-0.3 0.1-0.6v-3h1.3v3c0 0.5 0 0.8-0.1 1l-0.3 0.6c-0.1 0.1-0.3 0.3-0.5 0.3-0.2 0.1-0.5 0.1-0.7 0.1-0.3 0-0.5 0-0.7-0.1s-0.4-0.2-0.5-0.3c-0.2-0.2-0.3-0.4-0.3-0.6-0.1-0.2-0.1-0.6-0.1-1v-3zm-4.1 36.7-1 0.2s-7.2 1.4-12.7-4.1c-1.1-1.1-3.1-3.3-4-6.5-1-3.2-0.5-6.2 0.7-10.5 2.2-7.3 7.7-21.3 12.1-20.5 0.9 0.2 2.3 0.8 2.1 1.8-1 4.5-2.7 13.7-0.5 16.6 3 3.9 2 7.6-0.7 8.2-2.8 0.7-2.3 6.6 4 7.5zm23.1 26.2h-17.2s-3 0.5-3.1-3.2c-0.1-3.6-0.3-32.3-0.3-32.3h-2.4v-2.3h10.1v2.3h-2.5l0.1 30.1h13.2l-0.1-30.1h-2.4v-2.4h10.1v2.3h-2.6l0.2 31.3c0.2 0.1 0.9 4.3-3.1 4.3zm23.4-36.6c-0.3 1.1-1.4 3.9-4 6.5-5.5 5.5-12.7 4.1-12.7 4.1l-1-0.2-0.1-7.3c6.3-0.9 6.8-6.8 4-7.5s-3.8-4.3-0.7-8.2c2.3-2.9 0.6-12.1-0.5-16.6-0.2-1 1.1-1.6 2.1-1.8 4.3-0.8 10.1 11.7 12.5 20.5 1.2 4.5 1.4 7.5 0.4 10.5zm109.1 234-14.8-1v-223.9h14.8zm32.1 2.2-14.2-1v-224.3h14.2zm16 1.1v-227h15.4v228.1z"/>
			<polygon class="st3" points="435.4 288 432.7 287.8 432.7 288"/>
			<polygon class="st3" points="436.2 287.5 435.4 288 436.2 288"/>
			<polygon class="st3" points="434.8 35.8 432.7 35.8"/>
			<polygon class="st3" points="434.8 35.8 436.2 36.2 436.2 35.8"/>
		</g>
	</g>
</g>
<g class="st0" transform="translate(-21.7 -273.91)" display="none">
	<g class="st1" display="inline">
		<path class="st2" d="m117.1 289.6v-7.2h14.6v-14.6h3.8l7.4 8.8 6-0.2v-3.1l8.9-5.5h2.6v3.1l3.1 5.5 14.3 0.2-1 13.9h17.9v3.6s10.5 1.4 15.5 2.2c5 0.7 13.6 5.5 11.5 10.8-2.2 5.3-18.4 8.8-24.9 10s-59.6 2.9-59.6 2.9-44.7-2.2-52.4-7.9c-7.1-5.3-16.2-7.6 4.1-17 15.7-7.1 28.2-5.5 28.2-5.5z" fill="#020000"/>
		<g fill="#0a0909">
			<path class="st4" d="m223.6 3.2c-1.1 0.6-2.1 1.2-3.1 1.8-1.5 1.4-3 2.8-4.6 4l-115.6 130.4c-0.3 0.5-0.7 0.9-1 1.4-1.2 1.5-2.6 2.9-3.9 4.4-0.8 1.2-1.7 2.3-2.5 3.5-0.9 1.4-1.8 2.8-2.7 4.2-0.2 0.4-0.5 0.8-0.7 1.2l-0.1 0.1c-0.3 0.5-0.6 1-0.9 1.5-1.3 2.9-2.5 5.8-3.5 8.8-0.1 0.4-0.1 0.8-0.2 1.2s-0.1 0.8-0.2 1.3c-0.1 0.8-0.1 1.7-0.2 2.5v58.5c0.2 2 0.4 4 0.6 6.1 0.2 1.1 0.5 2.2 0.7 3.3 0.1 0.4 0.2 0.8 0.3 1.1 0.2 0.6 0.5 1.2 0.7 1.8 0.4 0.5 0.8 1.1 1.3 1.7 1 1.1 2.1 2.1 3.2 2.9l6 0.9 132.7 4.1v-248.9c-2.3 0.5-4.3 1.2-6.3 2.2zm-130.1 211.6-5.4 0.4v-8.7l5.4-1.9zm0-20.5-5.4 2.2v-9.7l5.4-3.5zm0-24.8-5.4 3.7v-8.3l5.4-5.6zm78.4-85.8 47.4-46.9v46.9l-47.4 32.4zm-72.5 69.8 14.3-14v16.1l-14.3 9.9zm0.4 60.9-0.5-11.8 14.2-5 0.3 15.8zm-0.4-22.6v-12.3l14.3-9.2 0.2 15.5zm39.4 20-19.6 1.3v-17.5l19.6-6.8zm0-36.4-19.6 8.2v-16.8l19.6-12.6zm0-36.8-19.6 13.4v-17.8l19.6-19.2zm26.4 71.4-21.2 1.4v-24.4l21.2-7.4zm0-45.6-21.2 8.8v-22.3l21.2-13.7zm0-43.8l-21.2 14.4v-25.1l21.2-20.7zm54 85.9-47.4 3.1v-32.4l47.4-16.6zm-47.4-44.9v-28.7l47.4-27.7v36.6z"/>
			<path class="st4" d="m258.4 211.6v51.8c1.6 6.4 5 8.8 12.2 9.5 0.5 0 1.2 0.1 2.1 0.2 1.1-0.2 2.2-0.4 3.4-0.5l16.3-5.8v-58.3 3.1z"/>
			<polygon class="st4" points="345.5 253.5 353.6 253.5 353.6 218.6 295.3 218.6 295.3 260.7 300.8 260.7 300.8 243.9 345.5 243.9"/>
			<path class="st4" d="m420.1 205.4c-4.8-1.3-69.4-4.5-69.4-4.5v3.1h-55.8v11.8l58.7 0.4v2.5h10v42.1h6.2v-41.6l7.2-0.5s-1.9-3.8 15.3-7c17.2-3.1 29.7 3.1 29.7 3.1v39.7h7.7v-37.5c0.4 0.7 1.4 0.7 4.3-2.2 5.7-5.8-9.1-8.2-13.9-9.4z"/>
			<path class="st4" d="m342.5 22.4c-7.1-4.8-17.1-5.1-25.3-7.4l-73.6-15c-4.4-0.1-8.8-0.1-13.1 0.8h2.1v249.1h-2.2l24.6 0.8v-42.1h37.3v-7.7h58.4l-1.3-165.7c-1.2-5-2.4-9.8-6.9-12.8zm-90.5 162.8h-6v-26.2l6 0.3zm0-64.7-6-0.4v-26.6l6 0.5zm0-60.9-6-0.7v-26.1l6 0.8zm71.4-15.9 6 0.8v24.6l-6-0.7zm-10-1.2 6 0.8v24.7l-6-0.6zm-9.9-1.6 6 0.8v24.9l-6-0.7zm-27.1-4.1 6 1 0.1 25.4-6.1-0.7zm-10.3 58.3 6 0.5v26.3l-6-0.4zm-3.4 90.1h-5.8v-25.8l6 0.1zm0.1-64-6-0.4v-26.4l6 0.5zm0-60.2-6-0.7v-25.9l6 0.7zm9.3 123.9h-6.1l0.1-25.6 6 0.3zm0.2-122.8-6-0.9v-25.7l6 1zm2.9 33.7 6 0.5v26.2l-6-0.4zm0.8 89.3 0.1-25.2 6 0.1 0.4 25h-6.5zm10-88.5 6 0.5v26.2l-6-0.4zm6.4 88.2-5.9 0.2-0.1-25.2 6 0.4zm0.1-120.2-6-0.7v-25.4l6 0.8zm8.3 120.3h-5.8l0.1-24.9 5.7 0.3zm0.1-61.2-6-0.4v-26l6 0.5zm0-58-6-0.8v-25.2l6 0.8zm2.6 32.3 6 0.5v25.9l-6-0.4zm7.3 86.7h-5.8l0.1-24.5 5.7 0.1zm2.6-85.8 6 0.5v25.8l-6-0.4zm7.3 86h-5.8l0.1-24.3 5.7 0.1zm2.5-85.4 6 0.5v25.7l-6-0.4zm6.1 85.4h-5.8l0.1-24.3 5.7 0.4zm2.7-139.9l6 0.8v24.4l-6-0.7zm6.2 140.2h-6v-24h6zm-6-59.3v-25.7l5.9 0.5 0.1 25.6z"/>
			<path class="st4" d="m229.8 0.8v0.2c0.3-0.1 0.5-0.1 0.8-0.2z"/>
			<polygon class="st4" points="229.8 249.9 230.5 249.9"/>
		</g>
	</g>
</g>
<g class="st0" transform="translate(-21.7 -273.91)" display="none">
	<g class="st1" display="inline" fill="#0a0909">
		<path class="st4" d="m127.1 158.3s9.5-28.4 34-37.2c0 0 15.1-7.3 22.1 9.3 0 0 16.4 6.1 23.3 0l0.6 135.1h9.5v-178.6c0.1 0-99.6-3-89.5 71.4z"/>
		<polygon class="st4" points="219.8 235.4 219.8 240.6 238.3 242.6 238.4 237.5"/>
		<path class="st4" d="m464.7 48.7c-1.2-0.1-2.5-0.1-3.7-0.1l-1.9 0.1c-0.8 0-1.7 0.1-2.5 0.1l-446.9 13.2c-0.8 0.3-1.6 0.5-2.3 0.9-4 1.8-5.7 3.7-7 6.9-0.1 0.8-0.2 1.6-0.3 2.3v135.1c0.1 0.7 0.2 1.5 0.2 2.2 1.3 4.5 3.5 8 7.3 8.5l1.2 0.1c0.9 0 1.8 0.1 2.6 0.3l129.8 13.7 65.1 7.1v-5.2l-65-7.2v-62.6h64.7l-0.1-13.3-62.7-0.6v-14.8c-4.6 4.7-8.2 9.8-10.7 14.2v5.3h-2.8c-1.7 3.5-2.5 5.9-2.5 6l-3.4-0.3c-0.3-1.9-0.4-3.8-0.6-5.6h-14.9v-37h23.7c1.2-1.8 2.5-3.5 4-5.2 2.2-2.5 4.6-4.8 7.1-6.9v-0.3h0.3c24.9-20 64.6-21.1 73-21.1h1.7l1.7 0.1v21h18.8v45.4l-18.8-0.2v13.2h18.8l-0.3 78.5 219.8 22.8c0.6 0 1.2 0.1 1.8 0.1 2.5-0.2 5.1-0.5 7.6-1h-2.9v-215.7zm-428.4 71.2h21.7v35h-21.7zm-12.3 68.6h-17v-29.3h17zm0-37.4h-17v-29.3h17zm0-42.2h-17v-34.4h17zm35.3 88.1h-24.3v-36.9h24.3zm1.2-85.6h-24.2v-36.9h24.3v36.9zm34.7 86.1h-24.3v-36.9h24.3zm0-42.6h-24.3v-33.1h24.3zm0-43.5h-24.3v-36.9h24.3zm37.2 53v36.9h-24.3v-36.9zm0-53h-24.3v-36.9h24.3zm151.7 102.1h-32.2v-39.7h32.2zm0-49.1h-32.2v-44.5h32.2zm0-53h-32.2v-39.7h32.2zm57.6 108.8h-41.6v-46.3h41.6zm0-55.8h-41.6v-44.5h41.6zm0-50.6h-41.6v-44.5h41.6zm54 106.4h-41.7v-46.3h41.6v46.3zm0-55.8h-41.7v-44.5h41.6v44.5zm0-53h-41.7v-44.5h41.6v44.5zm57.7 112.5h-45.4v-47.3h45.4zm0-56.7h-45.4v-47.3h45.4zm0-54.4h-45.4v-47.3h45.4z"/>
		<path class="st4" d="m511.9 69.6c-0.5-2.7-1.1-5.3-2.5-7.2-0.2-0.3-0.4-0.5-0.5-0.7-0.3-0.2-0.7-0.5-1-0.7l-34.8-10.9c-0.2-0.1-0.4-0.1-0.6-0.2-0.3-0.1-0.7-0.2-1-0.3-0.6-0.1-1.2-0.2-1.9-0.4-0.7-0.1-1.3-0.2-2-0.3v215.6c1.8-0.4 3.6-0.8 5.3-1.3 0.1 0 0.2-0.1 0.2-0.1l1.8-0.9 33.5-24.6c0.6-0.8 1.2-1.5 1.7-2.4 1.2-2 1.5-4.2 1.8-6.7v-158.6c0.1-0.1 0.1-0.2 0-0.3z"/>
		<path class="st4" d="m467.7 49v-0.3h-3v0.1c0.6 0 1.2 0.1 1.7 0.1 0.4-0.1 0.9 0 1.3 0.1z"/>
		<path class="st4" d="m467.7 264.5s-0.1 0 0 0z"/>
	</g>
</g>
<g class="st0" transform="translate(-21.7 -273.91)" display="none">
	<path class="st5" d="m91.2 36.8c-2.2-0.5-3.8 1.2-5.3 2.7-2.5 7.9-13.7 29.8-59.1 23.8 0 0-29.9 27.2-26.6 77.7 0 0 25.9-41.9 46.5-27.2s27.2 17.5 37.9 12.1v174.8c0.2 0.5 0.4 1 0.5 1.5 2.3 2.1 9.6 1.8 11.2-1.1v-262.3c-0.4-1.1-3.7-1.7-5.1-2z" display="inline" fill="#020000"/>
	<path class="st5" d="m483 316.9c-0.1-0.1-0.2-0.2-0.3-0.2-0.1-0.1-0.1-0.1-0.1-0.2-0.6-0.4-1.3-0.7-1.9-1.1l-0.1-0.1-154.4-66.8h-49.9l-194.8 69c-0.1 0.2-0.3 0.3-0.4 0.5 0 0.2-0.1 0.4-0.1 0.6 0.1 0.3 0.2 0.6 0.3 1l0.2 0.2 0.3 0.3h400.8c1-0.2 1.3-0.7 1.1-1.9-0.3-0.5-0.5-0.9-0.7-1.3z" display="inline" fill="#020000"/>
	<g class="st1" display="inline" fill="#0a0909">
		<path class="st4" d="m82.4 193.3c-10.6 22.7-16.3 42-17.6 56.8 0 1-0.1 2.1-0.1 3.1 0 1.3-0.1 2.6-0.1 3.8v21.8c0 0.7 0.1 1.4 0.1 2.2 0.1 1.2 0 2.3-0.1 3.4v7.5c0.1 0.2 0.1 0.4 0.2 0.6v0.1 0.1c0 0.2 0.1 0.4 0.1 0.5 0.2 0.6 0.5 1.1 0.8 1.7l0.4 0.4 0.6 0.6c0.3 0.2 1 0.8 1.2 0.9s0.7 0.3 1.1 0.5h13.5v-104z"/>
		<path class="st4" d="m511.8 35.6l-0.4-2.6c-0.1-1-0.3-2.1-0.6-3.2-0.5-0.8-1-1.7-1.5-2.4-1.8-1.7-3.9-2.8-6.2-3.6l-3.3-0.3c-9 0.8-17.6 4.5-25.9 7.9-0.5 0.2-1 0.4-1.4 0.5l-23.2 11.6s-35.7-25.9-77.6-39.7c-12.2-3-24.7-3.2-37.3-3.2-0.9 0.1-1.7 0.2-2.6 0.3-60.4 9.5-164.6 63.8-204.1 117.7-11.4 15.6-21.2 30.5-29.4 44.6v134.1h3.5c0.4-0.1 0.8-0.2 1.3-0.3l16.1-7.7c0.5-0.5 0.9-1.1 1.2-1.8-0.3-7-1.3-43.8 10.7-77.9 13.3-37.9 45.4-80.5 54.5-93 13-17.9 73.1-69.1 118.9-79.1-25.7 11.4-59.5 30.6-91.5 62.7-16.1 16.2-56.6 57.9-74 125.3-6 23.3-7.7 43.5-8 57.7 0.1 0.5 0.2 1.1 0.3 1.7 0.5 0.5 1 0.8 1.6 1h0.9l14.2-3.8c0.2-0.1 0.3-0.3 0.5-0.5-0.4-21.7 1.9-54.8 16.6-91.3 21.9-54.6 58.9-85.8 78.7-102 29.4-24.3 59.2-39.1 83.3-48.2 0 0-73.8 39.9-101 72.4-27.2 32.6-45.2 51.8-59.1 105.7-11.1 42.8-9.6 55.8-8.5 59.3 0.5 0.5 1.2 0.7 1.9 0.7l15.9-5.8c0.1-0.1 0.2-0.2 0.3-0.2l0.4-0.4c-0.8-22.2 1.5-53 15-86 20.2-49.4 54.5-77.3 74.7-93.3 28.4-22.5 56.2-35.4 76.3-42.9-0.5 0.4-68.3 35.8-101 75.1-30.5 36.7-40.8 61.2-49.2 97.7 0 0-3.4 35.4-3.4 44.7 0 0.2 0.1 0.4 0.1 0.6 0.4 0.5 0.9 0.7 1.6 0.7l16.8-5.2c0.4-0.3 0.7-0.8 0.8-1.4-1-21.4 1-51.8 15.5-83.6 11.8-25.8 27.5-43.3 37.8-54.6 5.3-5.9 18.5-19.8 38.3-34.6 20.8-15.5 40.8-25.8 57.4-32.8 0 0-48.5 29.2-65.1 45.9-16.6 16.6-40.5 41.2-55.8 73.1-14.2 29.6-20.1 68.2-19.1 82 0.1 0.3 0.2 0.7 0.3 1 0.2 0.2 0.3 0.3 0.4 0.5 0.4 0.2 0.8 0.3 1.2 0.4h0.5l21-8.6 0.6-0.6c0.1-0.2 0.1-0.5 0.2-0.8 0.6-31.4 8.2-55.4 14-69.9 17.3-42.7 45.5-68 60.1-80.7 15.8-13.8 30.4-22.8 38.3-27.3 11-6.3 22-12.6 37.8-17.3 25-7.5 52.5-8.2 52.5-8.2l-96.5 48.9-2.4 1.5c-2.6 2.6-4.4 5.6-4.8 9.5v138.1l156.2 68.1c0.3 0 0.5 0.2 0.7 0.3l5.3 2.3c0.2 0 0.5 0.1 0.7 0.1 0.8 0.2 1.6 0.5 2.5 0.6 1.8-0.4 3.5-0.9 4.9-2 0.1-0.1 0.1-0.2 0.2-0.4l0.3-0.6c0.4-158.2 0.4-274.3 0.1-276.5zm-132.2 186.6h-31.2v-27.2h9.3v19.3h21.9zm0-44.5h-31.2v-27.2h9.3v19.3h21.9zm0-42.5h-31.2v-27.2h9.3v19.3h21.9zm5.3 18.3h8.5v24.2h31.9v8h-40.4zm40.6 88.5h-40.4v-32.1h8.5v24.1h31.9zm0-111.2h-40.4v-32.1h8.5v24.2h31.9zm63.8 137.1h-56.6v-42.9h12.3v31.1h44.4v11.8zm0-70h-56.6v-44.4h12.3v32.1h44.4v12.3zm0-71.5h-56.6v-44.4h12.3v32.1h44.4v12.3z"/>
	</g>
</g>
<g class="st0" transform="translate(-21.7 -273.91)" display="none">
	<path class="st5" d="m512 305.1c-0.1 0.3-0.2 0.7-0.3 1.1 0 0.1 0 0.1-0.1 0.2-1.2 2.1-3.4 3.4-5.6 4.6h-102.8c-3.8-0.9-6.9-2.7-7-6.2 0-0.5-0.1-1-0.3-1.4l-1-50h-73.4v50.1c-0.1 0.7-0.2 1.5-0.3 2.2-1.1 2.7-2.8 4.9-5.7 5.3h-287.5c-12.5-1-21-14.3-26.3-24.2-0.2-0.4-0.4-0.9-0.7-1.3-0.2-0.9-0.4-1.8-0.7-2.6l-0.3-1.8v-105.1c0.1-1.6 0.2-3.2 0.4-4.8l48.3-130.1c2.1-3.3 4.7-5.7 7.6-7.6 0.7-0.2 1.4-0.4 2.2-0.7l123.5-23c1.3-0.1 2.6-0.2 3.9-0.4l65.1 14.5c0.5 0.3 1 0.6 1.6 0.8 1.4 1.2 2.5 2.8 3.2 5v11.9l59.2 120v72.4h180.1c0.8 0.1 1.6 0.2 2.3 0.3 2.9 1.4 5 3.3 5.7 6l8.9 62.7c-0.1 0.7 0 1.4 0 2.1zm-503.1-66.6 26.3-27.8h221.8l40.9 24.3v-21.8l-40.9-33.9h-216.3l-31.8 49zm0-42.5v13.2l31.8-57.2s162.7-18.7 216.2 0l37.8 43.5v-17.2l-40.5-59.7s-67.8-16.2-140.2-6.1-68.3 10.6-68.3 10.6zm3.5-21.8 36.4-85.5 129-18.2v-32.9l-126.4 24.3-39 102.6zm246.1-105.2v27.7l34.4 52.3v-17.5zm-25.2 2.1s7.7 1.5 13.6-4.3c2.8-2.8 3.9-5.8 4.3-6.9 1-3.2 0.8-6.4-0.5-11.2-2.5-9.4-8.7-22.8-13.3-21.9-1 0.2-2.4 0.9-2.2 1.9 1.1 4.8 2.9 14.6 0.5 17.7-3.2 4.2-2.2 8.1 0.8 8.8s2.5 7-4.3 8l0.1 7.8zm-31.8-0.2 0.1-7.8c-6.8-1-7.2-7.3-4.3-8s4-4.6 0.8-8.8c-2.4-3.1-0.6-12.9 0.5-17.7 0.2-1-1.2-1.7-2.2-1.9-4.7-0.9-10.6 14.1-12.9 21.9-1.4 4.6-1.8 7.8-0.8 11.2s3.1 5.7 4.3 6.9c5.9 5.8 13.6 4.3 13.6 4.3zm18.2-15.6h7v-3.9h-19.7v4h7.3v22.6h5.4v-22.7zm-18.1 5.7h2.5s0.2 30.6 0.3 34.5 3.3 3.4 3.3 3.4h18.4c4.3 0 3.5-4.5 3.5-4.5l-0.1-33.4h2.8v-2.5h-10.8v2.5h2.5l0.1 32.1h-14.1l-0.2-32.1h2.7v-2.5h-10.8v2.5zm6.4-26c0 0.3 0 0.5-0.1 0.6s-0.2 0.2-0.3 0.2-0.3-0.1-0.3-0.2c-0.1-0.1-0.1-0.3-0.1-0.6v-3.2h-1.4v3.2c0 0.5 0 0.9 0.1 1.1 0.1 0.3 0.2 0.5 0.4 0.6 0.1 0.2 0.3 0.3 0.6 0.4 0.2 0.1 0.5 0.1 0.8 0.1s0.5 0 0.8-0.1c0.2-0.1 0.4-0.2 0.6-0.4s0.3-0.4 0.4-0.6 0.1-0.6 0.1-1.1v-3.2h-1.6zm2.5 2h1.4v-2.3l1.9 2.3h0.6v-5.3h-1.4v2.3l-2-2.3h-0.6v5.3zm6.3 0v-5.3h-1.4v5.3zm3.2-3.9h1.1l-0.1-1.3h-3.2l-0.1 1.3h1.1v3.9h1.4v-3.9zm4.9 2.5h-1.9v-0.5h1.2v-1.4h-1.2v-0.5h1.8l-0.2-1.4h-2.9v5.2h2.9zm4.1-0.2c-0.1 0.1-0.3 0.1-0.4 0.2-0.1 0-0.3 0.1-0.4 0.1-0.4 0-0.7-0.1-1-0.4-0.3-0.2-0.4-0.5-0.4-0.9s0.1-0.7 0.4-0.9 0.6-0.4 1-0.4h0.4c0.1 0 0.2 0.1 0.4 0.1l-0.1-1.6c-0.1 0-0.2 0-0.3-0.1h-0.3c-0.8 0-1.5 0.3-2 0.8s-0.8 1.2-0.8 2 0.3 1.4 0.8 1.9 1.2 0.7 2 0.7h0.4c0.1 0 0.2 0 0.3-0.1zm-15.6 13.7 0.6-2.2 5.9 1.7c0.2 0.1 0.5 0 0.7-0.1 1-0.8 4.4-3 6-1.7 0 0-0.6-3-3.9-2.5l0.5-0.9c0.2-0.3 0-0.6-0.3-0.7l-1.2-0.4-0.4-0.7c-0.1-0.2-0.3-0.3-0.6-0.3l-7.3 1c-0.3 0-0.5 0.3-0.4 0.6l0.2 0.6s-1.2 5-0.9 5.4c0.5 0.3 1.1 0.2 1.1 0.2z" display="inline" fill="#020000"/>
</g>
<g class="st0" transform="translate(-21.7 -273.91)" display="none">
	<g class="st1" display="inline" fill="#020000">
		<path class="st2" d="m512 64c0-0.4-0.1-0.8-0.1-1.1-0.6-2-1.4-3.9-2.6-5.7-2.6-4-7-6.2-10.7-9.2-4.1-2.5-7.5-4.5-7.5-4.5-23.8-13.3-40.7-18.2-68.1-25.4-10-2.6-23.8-5.2-37.2-7.5-2.3-0.1-4.6-0.5-6.8-0.9-0.2 0-0.5 0-0.7-0.1-0.3-0.1-0.7-0.1-1-0.2-1.1-0.1-2.2-0.2-3.2-0.3-0.4 0-0.9 0.1-1.3 0.1-11.9-0.4-30.1 1.6-32.7 16v9.8l-21.3 11.7-27-15.1c-3.5-1.2-6.8-2.8-10.4-3.3v280.5l37.4-4.6 21.3 4.6 152.7 4h0.7l3.2 0.1h0.6c6.8-0.6 14.4-2 14.6-10.2v-0.2c0-2.3 0.1-4.7 0.3-7zm-172.1 236-21.3-4.3v-229.2l21.5-11.1z"/>
		<path class="st2" d="m276.8 28.3h-0.5c-4.1 0.6-7.5 2.1-10.9 4.1l-252.1 170.1c-0.5 0.4-0.9 0.8-1.4 1.1-3.4 2.7-7.2 5.7-9.7 9.3l5.8-3.4v9.6l-6.5 3.2v-8.2c-0.6 1-1.1 2.1-1.4 3.2l-0.1 56.4c1.6 5.3 4.6 9.7 11.1 10.8 0.6 0.1 1.1 0.3 1.5 0.5l39.2 4.5 22.1 4.1v-4.9l-9.9-1.6 0.2-112.6 7.4-3.7 3 1-0.8 121.8 201.2 15.6h1.7v-280.9zm-269.3 246.7l-6-0.4v-9.3h6zm0-19.2-6 0.6v-8.4l6-1.3zm0.5-18.3-6.5 2.5v-9.1l6.5-2.8zm1.1-28.6s7.4-4.4 7.2-4.4c-0.3 0 0 10.4 0 10.4l-7.2 3.7zm0 18.7 7.2-3v10.4l-7.2 2.1zm0 18.9 7.2-1.6v10.1l-7.2 0.7zm7.7 28.9-8.2-0.4v-9.7l8.2-0.4zm10 0.9-8.9-0.6v-11l8.9-0.3zm0-22.5-8.9 1.1v-10.4l8.9-1.8zm0-22-8.9 2.9v-10.7l8.9-3.8zm0-22.2s-9 5-8.9 4.7 0-10.8 0-10.8c0.9-0.4 8.9-5.6 8.9-5.6zm11.9 67.2-10-0.5v-11.9l10-0.3zm0-24.9-9.3 1v-10.9l9.3-2.1zm0-23.8s-10.4 2.8-10.3 2.7c0.2 0 0-11.1 0-11.1l10.3-4.5zm0.5-24.6-10.8 5.4v-11.6l10.8-6.7zm11.6 74.4-10.2-0.4v-13.4h10.2zm0.2-27.5-9.9 1.1v-12.3l9.9-2zm0-26.4-9.9 3.1v-12l9.9-4.9zm0-26.8-9.9 5.1v-12.4c0.3-0.3 9.9-6 9.9-6zm0.8 87.9v-102.5l8.1-3.7v107.5l4.1 0.7zm48.6-41.1-23.6 3.4v-16.4l23.6-4.9zm0-35.2-23.6 7.1v-16.5l23.6-9.4zm0-35.8-23.6 11.7v-16l23.6-15.5zm34.6 66.6-31.5 4.4v-19l31.5-7.1zm0-42.4-31.5 10.4v-19.4l31.5-13.3zm0.9-41.8-32.4 16v-19.3l32.4-20.2zm50.8 131-47.6-3.6v-23.1l47.6-0.9zm0-52.2-47.6 5.4v-22.7l47.6-11.1zm1.1-52.9-48.7 15.1v-22.2l48.7-20.9zm0-52.4c-0.7 0.2-48.7 24.3-48.7 24.3v-23.1l48.7-29.2c0-0.1 0.7 27.8 0 28zm82.4 162.2-77.4-4.3v-28.3l77.4-3.8zm0-67.6s-76.8 10.1-77.2 9.4 0-28.5 0-28.5c1.1 0.2 77.2-17.7 77.2-17.7zm0-68.7-77.2 24.8v-28.7l77.2-31.9zm-0.7-66.3-76.5 38.7v-29l77.2-47.2z"/>
	</g>
</g>
<g class="st0" transform="translate(-21.7 -273.91)" display="none">
	<g class="st1" display="inline">
		<g fill="#040006">
			<path class="st6" d="m421.7 187.4-394.8-59.6h-1c-4.5-0.1-10-0.2-13.8 2.6-0.7 0.5-1.3 1-1.8 1.6 0 0-0.6 0.9-0.8 1.3 0 0 0 0.1-0.1 0.1-0.2 0.5-0.4 1.1-0.7 1.6l-8.7 43.6v87.6c0 0.4 0.1 0.7 0.1 1.1 0.2 0.9 0.4 1.8 0.6 2.6 2.1 5.4 5.2 11 10.8 12.9 0.1 0 0.1 0 0.2 0.1l411 0.9z"/>
			<path class="st6" d="m510.1 296.8c0.6-1.2 1.1-2.4 1.5-3.7 0.1-0.2 0.1-0.5 0.2-0.7 0.1-0.9 0.1-1.8 0.2-2.7v-263.3c-1.1-4.9-3.2-8.8-8.2-9-0.4 0-0.8-0.1-1.1-0.1l-25 1v12.4l-46.7 22.6c-1.1 1-2.3 1.9-3.4 2.9-2.1 2.5-4.3 5.4-5.5 8.1-0.9 2.1-1.1 4.5-1.3 6.8l1.6 216.2c0.8 4.3 3.1 7.9 6.8 10.4 1 0.7 2.1 1.2 3.2 1.7 2 0.6 4.1 0.9 6.1 1.2l51.6 3c3.2 0 6.3-0.3 9.3-0.7 4-0.9 7.1-2.5 9.7-4.7 0.3-0.5 0.6-0.9 1-1.4z"/>
			<polygon class="st7" points="477.6 18.2 478.7 286 470.6 285.1 470.6 33.9" stroke="#fcfafb" stroke-miterlimit="10" stroke-width="1.5"/>
			</g><polygon class="st8" points="470.6 285.1 478.7 286 477.4 34.9 470.6 46.6" fill="#fff"/>
		<g fill="#fff">
			<polygon class="st8" points="54.6 218.6 111.4 222.3 111.4 240.7 54.6 238.3"/>
			<polygon class="st8" points="114.5 222.5 166.4 225.9 166.4 243.1 114.5 240.8"/>
			<path class="st8" d="m169.1 226.1s46.7 3 46.3 3c-0.3 0 0 16 0 16l-46.3-2z"/>
			<polygon class="st8" points="335.5 237 364.2 238.8 364.2 251.5 335.5 250.3"/>
			<polygon class="st8" points="371.9 239.3 371.9 251.9 414.9 253.7 414.9 242.1"/>
			<polygon class="st8" points="302.6 234.8 332.3 237 332.3 250.2 302.6 248.9"/>
			<polygon class="st8" points="217.8 229.3 258 231.9 258 247 217.8 245.2"/>
			<polygon class="st8" points="260.8 232.1 296.7 234.4 296.7 249.1 260.8 247.3"/>
			<polygon class="st8" points="54.6 254.6 111.4 256.3 111.4 274.4 54.6 274"/>
			<path class="st8" d="m114.5 256.4 52 1.6v16.4c0 0.3-52 0-52 0z"/>
			<polygon class="st8" points="169.6 258 215.4 259.4 215.4 275.1 169.6 274.8"/>
			<polygon class="st8" points="217.8 259.5 260.7 260.8 260.7 275.4 217.8 275.1"/>
			<polygon class="st8" points="265.7 260.8 279.9 261.3 279.9 282.8 265.7 282.8"/>
			<polygon class="st8" points="284 261.4 298.6 261.9 298.6 282.8 284 282.8"/>
			<polygon class="st8" points="302.6 262 332.3 262.9 332.3 275.9 302.6 275.7"/>
			<path class="st8" d="m335.5 263 28.7 0.9v12.2l-28.7-0.2c0.1 0 0-12.9 0-12.9z"/>
			<polygon class="st8" points="371.9 264.1 414.9 265.4 414.9 276.4 371.9 276.1"/>
			<polygon class="st8" points="260.8 171.4 297.5 176.7 297.5 193.9 260.8 189.6"/>
			<polygon class="st8" points="301.6 177.1 334.3 181.9 334.3 198 301.6 194.2"/>
			<polygon class="st8" points="338.2 182.4 365.4 186.4 365.4 201.6 338.2 198.4"/>
			<polygon class="st8" points="371.9 187.5 418.1 194.2 418.1 207.8 371.9 202.5"/>
			<polygon class="st8" points="260.8 199.7 296.7 204.2 296.7 223.1 260.8 220.4"/>
			<polygon class="st8" points="301.6 204.8 334.3 208.9 334.3 225.9 301.6 223.5"/>
			<polygon class="st8" points="338.2 209.4 365.4 212.9 365.4 228.3 338.2 226.3"/>
			<polygon class="st8" points="371.9 213.7 414.9 219.1 414.9 232.1 371.9 228.8"/>
		</g>
		<g stroke="#fff" stroke-miterlimit="10">
			<polygon class="st9" points="400.4 290.2 391.4 290.2 391.4 221.1 278.9 234.6 260.2 231.9 260.2 198.8 421.4 155.9 422.2 259.1 400.4 259.1" fill="#040006" stroke-width="2"/>
			<line class="st10" x1="260.2" x2="391.2" y1="231.9" y2="215.6" fill="none"/>
			<line class="st10" x1="391.4" x2="391.2" y1="221.1" y2="215.6" fill="none"/>
		</g>
		<g fill="#fff">
			<polygon class="st8" points="263.5 201.4 277.9 198 277.9 223.3 263.5 225.8"/>
			<path class="st8" d="m281.8 197 14.1-3.4v26.9s-13.8 2.2-14.1 2.3 0-25.8 0-25.8z"/>
			<polygon class="st8" points="299.5 192.8 315 189 315 217.3 299.5 220"/>
			<path class="st8" d="m319.9 187.9 18.7-4.5v30.2s-19.2 3.2-18.7 3.1c0.4-0.1 0-28.8 0-28.8z"/>
			<path class="st8" d="m342.6 182.4 22.4-5.4v32.4s-22.3 3.6-22.4 3.6 0-30.6 0-30.6z"/>
			<polygon class="st8" points="369.8 175.8 393.8 170.1 393.8 204.6 369.8 208.6"/>
			<polygon class="st8" points="399.1 168.8 421.5 163.4 421.7 200.3 399.1 203.9"/>
			<polygon class="st8" points="399.1 213 421.7 208.6 422.2 245.8 399.1 246.6"/>
		</g>
		<line class="st11" x1="422.2" x2="422.7" y1="257.7" y2="283.8" fill="none" stroke="#fff" stroke-miterlimit="10" stroke-width="2"/>
		<line class="st12" x1="10.6" x2="11.7" y1="132" y2="282.8" fill="none" stroke="#fdfdfd" stroke-miterlimit="10" stroke-width="2"/>
	</g>
</g>
<g class="st0" transform="translate(-21.7 -273.91)" display="none">
	<g class="st1" display="inline" fill="#020000">
		<polygon class="st2" points="198.8 172.3 156.1 166.4 156.1 175 198.7 180.2"/>
		<polygon class="st2" points="156.2 89.6 198.9 100.6 198.9 85 156.3 73.3"/>
		<polygon class="st2" points="282.8 246.9 201.4 245.7 201.4 250.8 282.7 251.3"/>
		<polygon class="st2" points="198.8 134.1 156.2 125.3 156.1 133.9 198.8 141.3"/>
		<path class="st2" d="m201.5 216h81.3l0.3-137.6c-3-0.4-6.1-0.7-9.1-0.9-3.8-0.2-7.5-0.2-11.2-0.2l-61 7.5z"/>
		<polygon class="st2" points="198.6 250.8 198.7 208.3 156 206.2 155.9 252.7 195.1 250.8"/>
		<path class="st2" d="m153.4 64.7c-0.5-0.9-1.1-1.6-2-2.2-0.3-0.2-0.5-0.3-0.8-0.4l-21.1-6.3c-1.3-0.2-2.5-0.3-3.8-0.3l-23.3 4.3-0.4 193.8 25.4 0.4 25.6-1.2z"/>
		<polygon class="st2" points="99.6 60.3 83 59.4 83 71.3 99.5 74.8"/>
		<path class="st2" d="m511.8 162.8c-0.1-0.3-0.1-0.6-0.2-0.8-0.5-1-1.2-1.9-1.9-2.7-0.1-0.1-0.2-0.1-0.2-0.2l-0.3-0.3c-0.3-0.2-0.6-0.3-0.9-0.5l-1.8-0.9-203.9-75.3c-5.5-1.4-11-2.5-16.7-3.3l-0.3 172.5h1.3l212.6-4.3c2.7-0.4 5.4-1.1 7-3.1l0.6-0.9c0.1-0.3 0.1-0.6 0.2-0.9v-53.3h2.4c0.9-0.1 1.6-0.8 2.1-1.8v-0.2l0.2-22.2c-0.1-0.6-0.1-1.2-0.2-1.8zm-194.7 37.6-30.2-3.2v-21.1l30.2 4.6zm0-37.8-30-5.7v-21.9l30 7.3zm0.1-39.2-30.2-8.6v-25l30.2 10.4zm3-22.2 25.3 8.7 0.1 21.6-25.5-7.3v-23zm26.8 102.3-26.7-2.8v-19.5l26.7 4.1zm0-35.2-26.7-5.1v-20.2l26.7 6.4zm1.7-57.3 22.9 7.9v20l-22.9-6.6zm23.2 95.1-22.8-2.4v-18.1l22.8 3.5zm0-33.1-22.8-4.3v-18.8l22.8 5.5zm2.2-53.2 19.8 6.8v18.7l-19.8-5.7zm19.9 88.7-19.9-2.1v-16.9l19.9 3zm0-31.3-19.9-3.8v-17.4l19.9 4.8zm2-49.9 17.4 6v17.6l-17.4-5zm17.9 83.2-17.6-1.9v-15.9l17.6 2.7zm0-29.5-17.6-3.4v-16.4l17.6 4.3zm1.5-47 15.9 5.5v16.5l-15.9-4.5zm16.4 78.4-16.1-1.7v-14.9l16.1 2.5zm0-28-16.1-3.1v-15.3l16.1 3.9zm1-44.4 14.3 4.9v15.6l-14.3-4.1zm14.7 74.1-14.3-1.5v-14.1l14.3 2.2zm0-26.7-14.3-2.7v-14.5l14.3 3.5zm0.9-42 12.8 4.4v14.8l-12.8-3.7zm13.2 70.2-12.6-1.3v-13.3l12.6 1.9zm0-25.5-12.6-2.4v-13.7l12.6 3.1zm0.9-39.9 11.5 4v14.1l-11.5-3.3zm12.1 66.7-11.6-1.2v-12.7l11.6 1.8zm0-24.3-11.6-2.2v-13l11.6 2.8zm0.7-38 11 3.8v13.4l-11-3.2zm11.1 63.6-10.7-1.1v-12.1l10.7 1.6zm0-23.4-10.7-2v-12.3l10.7 2.6zm0.7-36.1 9.1 3v12.9l-9.1-2.6zm9.9 60.6-9.7-1v-11.5l9.7 1.5zm0-22.5-9.7-1.8v-11.7l9.7 2.3zm9.4 23.5-8.3-0.9v-11l8.3 1.3zm0-21.8-8.4-1.5v-11.2l8.3 2v10.7zm0-21-8.7-2.5v-12.7l8.7 3zm4.4 1.1-3.5-0.9v-12.1l3.5 1.2z"/>
		<polygon class="st2" points="99.2 239.1 82.7 239.1 82.7 253.3 99.2 253.6"/>
		<path class="st2" d="m80.2 64-56.5 10.5h-0.1c-0.6 0.2-1.2 0.3-1.8 0.3-0.7 0.3-1.5 0.6-2.3 0.7-0.1 0-0.3 0.1-0.4 0.1h-0.1c-7.8 2.7-15 6.2-18.6 13.5l-0.3 1.5v145.4c0.1 0.5 0.2 0.9 0.3 1.5 0.7 7.1 7.3 11.6 14 14.4 0.5 0.1 0.9 0.2 1.4 0.3l64 1.1z"/>
	</g>
</g>
<g transform="matrix(.13608 0 0 .13608 -2.953 2.5463)"><g fill="#020000">
	<path class="st2" d="m247 264.8-70.2 21.8 82.6 33.4 57.8-30.8zm5.7 42.7-50.2-20.1 43.8-15 44.3 14.9z"/>
	<path class="st2" d="m320.7 239.5-44.8 13.9 69.8 20.3 38.1-20.3zm19.5 23.9-35-10 21.8-7.2 32.8 8z"/>
	<path class="st2" d="m395.5 216.3-39.5 12.2 53.9 10.9 32-17.1zm11.5 15.2-26.4-4.8 18.4-6.4 23.7 3.3z"/>
	<path class="st2" d="m461.7 195.8-36.6 11.6 36.6 4.5 30.3-13.1zm-19.8 9.1 19.9-6.4 17 1.7-15.4 7.1z"/>
	</g>
		<path d="m132 1c-0.7 0-1.4 0-2.1 0.1l-57.6 13.3-17.8-6.6s-16.9 2-26.3 4.9c-3.2 1.8-5.4 3.9-6.5 7.2v231.8c0 0.2 0 0.4 0.1 0.6 0.7 2.1 2.6 3.5 5.1 4.5 3.7 1.5 7.5 1.2 11.3 1.9l15.6 1.6 18.6-1.5 29.8 6.5h0.8c1.9 0.2 3.7 0.4 5.6 0.7l23.1 2.4h0.3zm-59.7 246.6h-18.6l0.7-225.1 17.8 7.3v217.8z"/>
		<path d="m458.9 76.7s-0.1 0-0.1-0.1c-0.2-0.1-0.5-0.3-0.7-0.4-0.1-0.1-0.2-0.2-0.3-0.2-0.3-0.1-0.6-0.2-0.9-0.4l-314.7-73.6h-0.3c-1.2-0.2-2.5-0.4-3.7-0.5v266.7c0.5 0 1-0.1 1.5-0.1l315.8-76.5c1.3-0.6 2.6-1.3 3.6-2.2 1.6-1.5 1.9-4.2 2.1-6.3 0-0.3 0.1-0.6 0.1-0.9v-99.7c-0.3-2.4-1-4.3-2.4-5.8zm-38.4 3 16 3.4v19.3l-16-1.4zm-21-4.5 18.8 4v21.6l-18.8-1.7zm0 32.1 18.8 1.5v24.7l-18.8 0.7zm-28.9-38.3l25.8 5.5v24.3l-25.8-2.3zm-34.6-7.5 30.9 6.6v28l-30.9-2.6zm-43.2-9.2 39.4 8.5v32.4l-39.4-4zm-60.6-13.1 55.7 12v38l-55.7-5zm-78.1-16.7 73.2 15.7v45.6l-73.2-6.5zm0 65.5 73.2 5.8v46.4l-73.2 2.6zm73.4 113.5-73.4 12.3v-57.2l73.4-4.6zm4.7-107.4 55.7 4.4v39.5l-55.7 2zm55.9 97.3-55.7 9.3v-49l55.7-3.5zm4.7-92.5 39.4 3.1v34.5l-39.4 1.4zm39.6 85.1-39.4 6.6v-42.7l39.4-2.5zm3.6-81.6 30.9 2.3v30.5l-30.9 1.1zm31.1 75.8-30.9 5.2v-38.2l30.9-2zm3.5-73.2 25.8 2v27.2l-25.8 0.9zm26 68.2-25.8 4.3v-34.4l25.8-1.9zm21.8-3.6-19 3.2 0.2-31.4 18.8-1.4zm2.1-60.6 16 1.3v22.6l-16 0.6zm16.2 57.5-16 2.7v-29.3l16-1.2zm14.3-2.4-12.2 2v-27.4l12.2-0.9zm0-31.8-12.4 0.4v-22.4l12.4 1zm0-28.6-12.4-1.3v-18.3l12.4 2.1z"/>
</g>
</svg>
