<?xml version="1.0" encoding="UTF-8"?>
<!-- Generator: Adobe Illustrator 16.0.0, SVG Export Plug-In . SVG Version: 6.00 Build 0)  -->
<svg width="64" height="57.086" version="1.1" viewBox="0 0 63.999998 57.086428" xml:space="preserve" xmlns="http://www.w3.org/2000/svg" xmlns:cc="http://creativecommons.org/ns#" xmlns:dc="http://purl.org/dc/elements/1.1/" xmlns:rdf="http://www.w3.org/1999/02/22-rdf-syntax-ns#"><metadata><rdf:RDF><cc:Work rdf:about=""><dc:format>image/svg+xml</dc:format><dc:type rdf:resource="http://purl.org/dc/dcmitype/StillImage"/><dc:title/></cc:Work></rdf:RDF></metadata>
<g transform="matrix(.068754 0 0 .068754 -2.289e-5 -3.4568)">
		<path d="m683.95 50.278c-94.2 0-176.2 52.3-218.5 129.4-42.4-77.1-124.3-129.4-218.5-129.4-90.2 0-172.1 52.8-215.3 131-51.4 92.9-33.8 195.3 7.3 288.5 0.1 0.199 0.2 0.4 0.3 0.6h204.1l46.8-84.299c9.5-17.101 34.199-17.2 43.699-0.101l85.9 153.6 132.9-279.7c9.5-20.1 38.6-18.7 46.1 2.2l75.6 208.2h217.2c0.101-0.199 0.2-0.4 0.3-0.6 41.2-93.201 58.7-195.6 7.4-288.5-43.2-78.1-125.2-130.9-215.3-130.9z"/>
		<path d="m615.45 529.28-46.4-128-123 258.9c-8.7 18.4-34.5 19.199-44.5 1.5l-89.399-159.9-17.301 31.1c-4.399 7.9-12.8 12.9-21.899 12.9h-188.6c103.4 141.7 304.1 287.6 363.9 329.4 10.3 7.199 24.1 7.199 34.401 0 59.8-41.9 260.5-187.8 363.9-329.4h-207.5c-10.601-1e-3 -20.001-6.601-23.601-16.501z"/>
</g>
</svg>
