<?xml version="1.0" encoding="UTF-8"?>
<!-- Generator: Adobe Illustrator 19.0.0, SVG Export Plug-In . SVG Version: 6.00 Build 0)  -->
<svg width="64" height="64" version="1.1" viewBox="0 0 64 64" xml:space="preserve" xmlns="http://www.w3.org/2000/svg" xmlns:cc="http://creativecommons.org/ns#" xmlns:dc="http://purl.org/dc/elements/1.1/" xmlns:rdf="http://www.w3.org/1999/02/22-rdf-syntax-ns#"><metadata><rdf:RDF><cc:Work rdf:about=""><dc:format>image/svg+xml</dc:format><dc:type rdf:resource="http://purl.org/dc/dcmitype/StillImage"/><dc:title/></cc:Work></rdf:RDF></metadata>
<g transform="scale(1.1852)">
	<path d="m27 18c-4.962 0-9 4.038-9 9s4.038 9 9 9 9-4.038 9-9-4.038-9-9-9z"/>
	<path d="m51.22 21h-2.018c-0.515-1.911-1.272-3.74-2.26-5.457l1.426-1.426c0.525-0.525 0.814-1.224 0.814-1.966 0-0.743-0.289-1.441-0.814-1.967l-4.553-4.553c-1.05-1.049-2.881-1.051-3.933 0l-1.426 1.426c-1.716-0.987-3.545-1.744-5.456-2.259v-2.018c0-1.533-1.247-2.78-2.78-2.78h-6.44c-1.533 0-2.78 1.247-2.78 2.78v2.018c-1.911 0.515-3.74 1.272-5.457 2.26l-1.426-1.426c-1.051-1.052-2.883-1.05-3.933 0l-4.553 4.553c-0.525 0.525-0.814 1.224-0.814 1.967 0 0.742 0.289 1.44 0.814 1.966l1.426 1.426c-0.987 1.716-1.745 3.545-2.259 5.456h-2.018c-1.533 0-2.78 1.247-2.78 2.78v6.438c0 1.534 1.247 2.782 2.78 2.782h2.018c0.515 1.911 1.272 3.74 2.26 5.457l-1.426 1.426c-0.525 0.525-0.814 1.224-0.814 1.966 0 0.743 0.289 1.441 0.814 1.967l4.553 4.553c1.05 1.051 2.882 1.052 3.933 0l1.426-1.426c1.717 0.987 3.546 1.745 5.457 2.26v2.017c-1e-3 1.532 1.246 2.78 2.779 2.78h6.439c1.533 0 2.78-1.248 2.78-2.781v-2.017c1.911-0.515 3.74-1.272 5.457-2.26l1.426 1.426c1.052 1.052 2.882 1.05 3.933 0l4.553-4.553c0.525-0.525 0.814-1.224 0.814-1.967 0-0.742-0.289-1.44-0.814-1.966l-1.426-1.426c0.987-1.717 1.745-3.546 2.26-5.457h2.018c1.533 0 2.78-1.248 2.78-2.781v-6.438c0-1.533-1.247-2.78-2.78-2.78zm-12.22 6c0 6.617-5.383 12-12 12s-12-5.383-12-12 5.383-12 12-12 12 5.383 12 12z"/>
</g>
</svg>
