<?xml version="1.0" encoding="utf-8"?>
<!-- Generator: Adobe Illustrator 21.1.0, SVG Export Plug-In . SVG Version: 6.00 Build 0)  -->
<svg version="1.1"
	 id="Capa_1" xmlns:cc="http://creativecommons.org/ns#" xmlns:dc="http://purl.org/dc/elements/1.1/" xmlns:rdf="http://www.w3.org/1999/02/22-rdf-syntax-ns#"
	 xmlns="http://www.w3.org/2000/svg" xmlns:xlink="http://www.w3.org/1999/xlink" x="0px" y="0px" viewBox="0 0 64 46.1"
	 style="enable-background:new 0 0 64 46.1;" xml:space="preserve">
<style type="text/css">
	.st0{display:none;}
</style>
<path class="st0" d="M62.4,46.1c0.7-0.3,1.3-0.5,1.6-1.3v1.3H62.4z"/>
<path class="st0" d="M37.8,37.5c1.3,0.1,2.5,0.2,3.8,0.3v1.6c-1.2,0-2.3,0-3.5,0c-0.1,0-0.3-0.2-0.3-0.4
	C37.8,38.5,37.8,38,37.8,37.5z"/>
<path class="st0" d="M45.5,39.6c-1.2-0.1-2.3-0.1-3.6-0.2v-1.7c1.2,0.1,2.3,0.2,3.6,0.3V39.6z"/>
<g>
	<path d="M8.4,15.2c0.3-1.3,0.6-2.7,0.9-4c0.1-0.3,0.1-0.6,0.2-0.8h0.2v18.2c-0.7-0.2-0.8-1-1.2-1.5L8.4,15.2z"/>
	<path d="M57.1,17.3c0-1-0.7-1.8-1.7-2c-6.8-0.9-38.1-5.2-44.4-5.7c-0.6,0-1.1,0.4-1.1,1v17.1c0,0.6,0.4,1,1,1h44.2c1.1,0,2-0.9,2-2
		L57.1,17.3z M47.4,16.2l5.3,0.7l0,3.1l-5.3-0.4L47.4,16.2z M53.9,23.2v1.7c-1.2-0.1-2.3-0.1-3.5-0.2V23
		C51.5,23.1,52.7,23.1,53.9,23.2z M40.6,15.2l6,0.9v3.5l-6-0.5V15.2z M15.3,11.4l23.8,3.4V21l-23.8-1.7V11.4z M22.4,27.7h-4.9
		c-0.6,0-1.2,0-1.8,0c-0.3,0-0.5-0.1-0.5-0.5c0-0.6,0-1.3,0-2c0.9,0,1.8,0,2.6,0c1.4,0,2.7,0.1,4.1,0.1c0.4,0,0.5,0.1,0.5,0.5
		C22.4,26.5,22.4,27,22.4,27.7z M22.4,23.5c-2.4-0.1-4.8-0.2-7.1-0.3c0-0.8,0-1.6,0-2.5c0.4,0,0.7,0,1.1,0c1.8,0.1,3.6,0.2,5.5,0.3
		c0.4,0,0.7,0.1,0.6,0.6C22.4,22.3,22.4,22.8,22.4,23.5z M29.2,27.7h-6.5v-2.1h6.5V27.7z M29.2,23.5c0,0.1-0.3,0.3-0.4,0.3
		c-1.8-0.1-3.7-0.2-5.5-0.2c-0.6,0-0.7-0.2-0.7-0.7c0-0.5,0-1,0-1.7c2.2,0.1,4.3,0.3,6.6,0.4C29.3,22.3,29.3,22.9,29.2,23.5z
		 M29.6,21.6c1.9,0.1,3.9,0.3,5.8,0.4c0,0.6,0,1.1,0,1.6c0,0.4-0.1,0.5-0.5,0.5c-1.8-0.1-3.5-0.2-5.3-0.3
		C29.6,23.1,29.6,22.4,29.6,21.6z M34.6,27.8c-1.7,0-3.3,0-5,0v-2.1c1.5,0,3,0,4.5,0c1.3,0,1.2,0,1.3,1.3
		C35.4,27.7,35.2,27.8,34.6,27.8z M35.7,22c1.7,0.1,3.3,0.2,5,0.3v1.9c-1.6-0.1-3.3-0.1-5-0.2V22z M41,27.8h-5.3v-1.9H41V27.8z
		 M43.4,28.7h-1.8V26h1.8V28.7z M45.8,28.7h-1.8v-2.6h1.8V28.7z M46,24.4l-5.1-0.2v-1.8l5.1,0.3V24.4z M49.9,27.8h-3.7v-1.6h3.7
		V27.8z M50,24.6c-1.2,0-2.3,0-3.5,0c-0.1,0-0.3-0.2-0.3-0.4c0-0.5,0-0.9,0-1.5c1.3,0.1,2.5,0.2,3.8,0.3V24.6z M53.9,27.9h-3.6v-1.6
		h3.6V27.9z"/>
</g>
</svg>
