<?xml version="1.0" encoding="UTF-8"?>
<!-- Generator: Adobe Illustrator 17.1.0, SVG Export Plug-In . SVG Version: 6.00 Build 0)  -->
<svg width="64" height="82.093" version="1.1" viewBox="0 0 63.999998 82.093205" xml:space="preserve" xmlns="http://www.w3.org/2000/svg" xmlns:cc="http://creativecommons.org/ns#" xmlns:dc="http://purl.org/dc/elements/1.1/" xmlns:rdf="http://www.w3.org/1999/02/22-rdf-syntax-ns#"><metadata><rdf:RDF><cc:Work rdf:about=""><dc:format>image/svg+xml</dc:format><dc:type rdf:resource="http://purl.org/dc/dcmitype/StillImage"/><dc:title/></cc:Work></rdf:RDF></metadata>
<path d="m12.049 58.186h39.902v11.4h-39.902zm51.889-49.3-4.5404 18.707c1.7598 3.8184 2.7528 8.06 2.7606 12.529l0.05986 34.528c0.0033 1.9631-0.75811 3.8106-2.1435 5.2014-1.3862 1.3908-3.2309 2.1587-5.194 2.162l-45.675 0.0791h-0.01271c-4.0456 0-7.3433-3.292-7.3506-7.3375l-0.05945-34.528c-0.0078-4.4806 0.95737-8.8119 2.7901-12.758l-4.5109-18.584c-0.23452-0.9668 0.21156-1.9709 1.0865-2.4449l7.5446-4.0874c0.5982-0.32432 1.3128-0.35179 1.9344-0.0759 0.62157 0.27635 1.08 0.82535 1.2407 1.4867l2.8286 11.654c1.3469-0.94384 2.7635-1.7675 4.2333-2.474v-1.5441c-4.1e-4 -6.2863 5.1136-11.4 11.4-11.4h3.3399c6.2863 0 11.4 5.114 11.4 11.4v1.5953c1.4756 0.71588 2.8877 1.5441 4.2186 2.4806l2.8426-11.712c0.16072-0.66135 0.6187-1.2104 1.2407-1.4867 0.62157-0.27634 1.3358-0.24846 1.9344 0.0759l7.5446 4.0874c0.87537 0.47438 1.3215 1.4781 1.0869 2.4449zm-40.616 2.3616c2.754-0.82165 5.6409-1.255 8.5958-1.26h0.05371c3.0271 0 5.9492 0.45511 8.7082 1.2911-0.06601-3.8119-3.1825-6.8935-7.0095-6.8935h-3.3399c-3.8172-4.1e-4 -6.9259 3.0648-7.0083 6.8623zm33.013 44.746c0-1.2108-0.98156-2.1923-2.1923-2.1923h-44.286c-1.2108 0-2.1923 0.98156-2.1923 2.1923v15.785c0 1.2108 0.98156 2.1923 2.1923 2.1923h44.286c1.2108 0 2.1923-0.98156 2.1923-2.1923zm0-14.761c0-13.419-10.917-24.336-24.336-24.336-13.419 0-24.336 10.917-24.336 24.336 0 1.2108 0.98156 2.1923 2.1923 2.1923 1.2108 0 2.1923-0.98156 2.1923-2.1923 0-11.001 8.9497-19.951 19.951-19.951 11.001 0 19.951 8.9497 19.951 19.951 0 1.2108 0.98156 2.1923 2.1923 2.1923s2.1931-0.98156 2.1931-2.1923z" stroke-width=".41001"/>
</svg>
